<svg width="84" height="45" viewBox="0 0 84 45" fill="none" xmlns="http://www.w3.org/2000/svg">
<path d="M24.0243 44.5742C19.283 44.5742 15.1763 43.6596 11.7043 41.8302C8.23231 40.0009 5.54431 37.4622 3.64031 34.2142C1.73631 30.9289 0.784313 27.0836 0.784313 22.6782C0.784313 18.3102 1.73631 14.4836 3.64031 11.1982C5.54431 7.91289 8.23231 5.35555 11.7043 3.52622C15.1763 1.69689 19.283 0.782221 24.0243 0.782221C28.7283 0.782221 32.8163 1.69689 36.2883 3.52622C39.7603 5.35555 42.4483 7.91289 44.3523 11.1982C46.2563 14.4462 47.2083 18.2729 47.2083 22.6782C47.2083 27.0462 46.2563 30.8729 44.3523 34.1582C42.4483 37.4436 39.7603 40.0009 36.2883 41.8302C32.8163 43.6596 28.7283 44.5742 24.0243 44.5742ZM24.0243 35.9502C28.019 35.9502 31.1176 34.7929 33.3203 32.4782C35.5603 30.1636 36.6803 26.8969 36.6803 22.6782C36.6803 18.4596 35.5603 15.1929 33.3203 12.8782C31.1176 10.5636 28.019 9.40622 24.0243 9.40622C20.0296 9.40622 16.9123 10.5636 14.6723 12.8782C12.4323 15.1929 11.3123 18.4596 11.3123 22.6782C11.3123 26.8969 12.4323 30.1636 14.6723 32.4782C16.9123 34.7929 20.0296 35.9502 24.0243 35.9502ZM56.2059 44.2382C55.0859 44.2382 54.0593 43.9769 53.1259 43.4542C52.2299 42.8942 51.5206 42.1662 50.9979 41.2702C50.4753 40.3742 50.2139 39.3662 50.2139 38.2462C50.2139 37.1262 50.4753 36.1182 50.9979 35.2222C51.5206 34.3262 52.2299 33.6169 53.1259 33.0942C54.0593 32.5342 55.0859 32.2542 56.2059 32.2542C57.3259 32.2542 58.3339 32.5342 59.2299 33.0942C60.1259 33.6169 60.8353 34.3262 61.3579 35.2222C61.9179 36.1182 62.1979 37.1262 62.1979 38.2462C62.1979 39.3662 61.9179 40.3742 61.3579 41.2702C60.8353 42.1662 60.1259 42.8942 59.2299 43.4542C58.3339 43.9769 57.3259 44.2382 56.2059 44.2382ZM83.3769 1.67822V43.6782H72.9049V5.26222L78.0009 9.91022L60.0249 13.0462V4.87022L75.5929 1.67822H83.3769Z" fill="white"/>
</svg>
