<svg width="107" height="45" viewBox="0 0 107 45" fill="none" xmlns="http://www.w3.org/2000/svg">
<path d="M23.8329 44.5742C19.0916 44.5742 14.9849 43.6596 11.5129 41.8302C8.04091 40.0009 5.35291 37.4622 3.44891 34.2142C1.54491 30.9289 0.592906 27.0836 0.592906 22.6782C0.592906 18.3102 1.54491 14.4836 3.44891 11.1982C5.35291 7.91289 8.04091 5.35555 11.5129 3.52622C14.9849 1.69689 19.0916 0.782221 23.8329 0.782221C28.5369 0.782221 32.6249 1.69689 36.0969 3.52622C39.5689 5.35555 42.2569 7.91289 44.1609 11.1982C46.0649 14.4462 47.0169 18.2729 47.0169 22.6782C47.0169 27.0462 46.0649 30.8729 44.1609 34.1582C42.2569 37.4436 39.5689 40.0009 36.0969 41.8302C32.6249 43.6596 28.5369 44.5742 23.8329 44.5742ZM23.8329 35.9502C27.8276 35.9502 30.9262 34.7929 33.1289 32.4782C35.3689 30.1636 36.4889 26.8969 36.4889 22.6782C36.4889 18.4596 35.3689 15.1929 33.1289 12.8782C30.9262 10.5636 27.8276 9.40622 23.8329 9.40622C19.8382 9.40622 16.7209 10.5636 14.4809 12.8782C12.2409 15.1929 11.1209 18.4596 11.1209 22.6782C11.1209 26.8969 12.2409 30.1636 14.4809 32.4782C16.7209 34.7929 19.8382 35.9502 23.8329 35.9502ZM56.0145 44.2382C54.8945 44.2382 53.8679 43.9769 52.9345 43.4542C52.0385 42.8942 51.3292 42.1662 50.8065 41.2702C50.2839 40.3742 50.0225 39.3662 50.0225 38.2462C50.0225 37.1262 50.2839 36.1182 50.8065 35.2222C51.3292 34.3262 52.0385 33.6169 52.9345 33.0942C53.8679 32.5342 54.8945 32.2542 56.0145 32.2542C57.1345 32.2542 58.1425 32.5342 59.0385 33.0942C59.9345 33.6169 60.6439 34.3262 61.1665 35.2222C61.7265 36.1182 62.0065 37.1262 62.0065 38.2462C62.0065 39.3662 61.7265 40.3742 61.1665 41.2702C60.6439 42.1662 59.9345 42.8942 59.0385 43.4542C58.1425 43.9769 57.1345 44.2382 56.0145 44.2382ZM71.0807 1.67822H103.449V9.63022H74.2727L78.5287 7.61422L76.1767 23.4062H73.4887C74.3101 22.0249 75.4301 20.7556 76.8487 19.5982C78.3047 18.4409 80.0781 17.5076 82.1687 16.7982C84.2594 16.0889 86.6861 15.7342 89.4487 15.7342C93.0327 15.7342 96.1127 16.3316 98.6887 17.5262C101.265 18.7209 103.243 20.3636 104.625 22.4542C106.043 24.5449 106.753 26.9529 106.753 29.6782C106.753 32.5529 105.95 35.1102 104.345 37.3502C102.739 39.5902 100.425 41.3636 97.4007 42.6702C94.4141 43.9396 90.8301 44.5742 86.6487 44.5742C82.5421 44.5742 78.9767 43.9769 75.9527 42.7822C72.9287 41.5876 70.5581 39.9636 68.8407 37.9102C67.1234 35.8196 66.1154 33.5049 65.8167 30.9662H76.3447C76.7554 32.6089 77.8381 33.9156 79.5927 34.8862C81.3847 35.8569 83.7367 36.3422 86.6487 36.3422C88.6274 36.3422 90.3261 36.0809 91.7447 35.5582C93.1634 34.9982 94.2647 34.2142 95.0487 33.2062C95.8327 32.1982 96.2247 31.0036 96.2247 29.6222C96.2247 28.3156 95.8701 27.1582 95.1607 26.1502C94.4887 25.1422 93.4621 24.3582 92.0807 23.7982C90.7367 23.2382 89.0567 22.9582 87.0407 22.9582C85.3607 22.9582 83.8487 23.1449 82.5047 23.5182C81.1981 23.8916 80.0407 24.3769 79.0327 24.9742C78.0621 25.5716 77.2594 26.1876 76.6247 26.8222H67.5527L71.0807 1.67822Z" fill="white"/>
</svg>
