<svg width="108" height="44" viewBox="0 0 108 44" fill="none" xmlns="http://www.w3.org/2000/svg">
<path d="M23.4579 43.896C18.7166 43.896 14.6099 42.9813 11.1379 41.152C7.66591 39.3227 4.97791 36.784 3.07391 33.536C1.16991 30.2507 0.217906 26.4053 0.217906 22C0.217906 17.632 1.16991 13.8053 3.07391 10.52C4.97791 7.23466 7.66591 4.67733 11.1379 2.848C14.6099 1.01867 18.7166 0.103998 23.4579 0.103998C28.1619 0.103998 32.2499 1.01867 35.7219 2.848C39.1939 4.67733 41.8819 7.23466 43.7859 10.52C45.6899 13.768 46.6419 17.5947 46.6419 22C46.6419 26.368 45.6899 30.1947 43.7859 33.48C41.8819 36.7653 39.1939 39.3227 35.7219 41.152C32.2499 42.9813 28.1619 43.896 23.4579 43.896ZM23.4579 35.272C27.4526 35.272 30.5512 34.1147 32.7539 31.8C34.9939 29.4853 36.1139 26.2187 36.1139 22C36.1139 17.7813 34.9939 14.5147 32.7539 12.2C30.5512 9.88533 27.4526 8.728 23.4579 8.728C19.4632 8.728 16.3459 9.88533 14.1059 12.2C11.8659 14.5147 10.7459 17.7813 10.7459 22C10.7459 26.2187 11.8659 29.4853 14.1059 31.8C16.3459 34.1147 19.4632 35.272 23.4579 35.272ZM55.6395 43.56C54.5195 43.56 53.4929 43.2987 52.5595 42.776C51.6635 42.216 50.9542 41.488 50.4315 40.592C49.9089 39.696 49.6475 38.688 49.6475 37.568C49.6475 36.448 49.9089 35.44 50.4315 34.544C50.9542 33.648 51.6635 32.9387 52.5595 32.416C53.4929 31.856 54.5195 31.576 55.6395 31.576C56.7595 31.576 57.7675 31.856 58.6635 32.416C59.5595 32.9387 60.2689 33.648 60.7915 34.544C61.3515 35.44 61.6315 36.448 61.6315 37.568C61.6315 38.688 61.3515 39.696 60.7915 40.592C60.2689 41.488 59.5595 42.216 58.6635 42.776C57.7675 43.2987 56.7595 43.56 55.6395 43.56ZM87.6427 0.103998C91.2267 0.103998 94.3813 0.645331 97.1067 1.728C99.8693 2.81067 102.109 4.28533 103.827 6.152C105.544 7.98133 106.589 10.072 106.963 12.424H97.1067C96.5467 11.1547 95.5573 10.1093 94.1387 9.288C92.72 8.42933 90.648 8 87.9227 8C85.0107 8 82.6027 8.54133 80.6987 9.624C78.832 10.7067 77.4507 12.256 76.5547 14.272C75.6587 16.2507 75.2107 18.696 75.2107 21.608C75.2107 24.7067 75.696 27.32 76.6667 29.448C77.6747 31.576 79.1493 33.2 81.0907 34.32C83.032 35.4027 85.4027 35.944 88.2027 35.944C90.1813 35.944 91.8427 35.6827 93.1867 35.16C94.568 34.6 95.5947 33.8347 96.2667 32.864C96.976 31.8933 97.3307 30.8107 97.3307 29.616C97.3307 28.4213 96.9947 27.376 96.3227 26.48C95.688 25.584 94.736 24.8933 93.4667 24.408C92.1973 23.8853 90.5733 23.624 88.5947 23.624C86.0187 23.624 83.5547 24.2213 81.2027 25.416C78.888 26.5733 76.8347 28.216 75.0427 30.344L71.2907 27.768C72.4853 25.4533 74.016 23.4 75.8827 21.608C77.7493 19.7787 79.952 18.3413 82.4907 17.296C85.0293 16.2133 87.904 15.672 91.1147 15.672C94.5493 15.672 97.5173 16.2507 100.019 17.408C102.557 18.528 104.499 20.1147 105.843 22.168C107.224 24.2213 107.915 26.592 107.915 29.28C107.915 32.1173 107.131 34.6373 105.563 36.84C103.995 39.0427 101.736 40.7787 98.7867 42.048C95.8373 43.28 92.272 43.896 88.0907 43.896C83.0133 43.896 78.776 42.9627 75.3787 41.096C71.9813 39.2293 69.4427 36.6533 67.7627 33.368C66.0827 30.0453 65.2427 26.256 65.2427 22C65.2427 17.744 66.0827 13.9733 67.7627 10.688C69.4427 7.40267 71.944 4.82667 75.2667 2.96C78.6267 1.056 82.752 0.103998 87.6427 0.103998Z" fill="white"/>
</svg>
