<svg width="105" height="39" viewBox="0 0 105 39" fill="none" xmlns="http://www.w3.org/2000/svg">
<path d="M20.7963 1.67822V37.6782H11.8203V4.75022L16.1883 8.73422L0.78025 11.4222V4.41422L14.1243 1.67822H20.7963ZM30.4364 1.67822H58.1804V8.49422H33.1724L36.8204 6.76622L34.8044 20.3022H32.5004C33.2044 19.1182 34.1644 18.0302 35.3804 17.0382C36.6284 16.0462 38.1484 15.2462 39.9404 14.6382C41.7324 14.0302 43.8124 13.7262 46.1804 13.7262C49.2524 13.7262 51.8924 14.2382 54.1004 15.2622C56.3084 16.2862 58.0044 17.6942 59.1884 19.4862C60.4044 21.2782 61.0124 23.3422 61.0124 25.6782C61.0124 28.1422 60.3244 30.3342 58.9484 32.2542C57.5724 34.1742 55.5884 35.6942 52.9964 36.8142C50.4364 37.9022 47.3644 38.4462 43.7804 38.4462C40.2604 38.4462 37.2044 37.9342 34.6124 36.9102C32.0204 35.8862 29.9884 34.4942 28.5164 32.7342C27.0444 30.9422 26.1804 28.9582 25.9244 26.7822H34.9484C35.3004 28.1902 36.2284 29.3102 37.7324 30.1422C39.2684 30.9742 41.2844 31.3902 43.7804 31.3902C45.4764 31.3902 46.9324 31.1662 48.1484 30.7182C49.3644 30.2382 50.3084 29.5662 50.9804 28.7022C51.6524 27.8382 51.9884 26.8142 51.9884 25.6302C51.9884 24.5102 51.6844 23.5182 51.0764 22.6542C50.5004 21.7902 49.6204 21.1182 48.4364 20.6382C47.2844 20.1582 45.8444 19.9182 44.1164 19.9182C42.6764 19.9182 41.3804 20.0782 40.2284 20.3982C39.1084 20.7182 38.1164 21.1342 37.2524 21.6462C36.4204 22.1582 35.7324 22.6862 35.1884 23.2302H27.4124L30.4364 1.67822ZM84.8601 38.4462C80.7961 38.4462 77.2761 37.6622 74.3001 36.0942C71.3241 34.5262 69.0201 32.3502 67.3881 29.5662C65.7561 26.7502 64.9401 23.4542 64.9401 19.6782C64.9401 15.9342 65.7561 12.6542 67.3881 9.83822C69.0201 7.02222 71.3241 4.83022 74.3001 3.26222C77.2761 1.69422 80.7961 0.910221 84.8601 0.910221C88.8921 0.910221 92.3961 1.69422 95.3721 3.26222C98.3481 4.83022 100.652 7.02222 102.284 9.83822C103.916 12.6222 104.732 15.9022 104.732 19.6782C104.732 23.4222 103.916 26.7022 102.284 29.5182C100.652 32.3342 98.3481 34.5262 95.3721 36.0942C92.3961 37.6622 88.8921 38.4462 84.8601 38.4462ZM84.8601 31.0542C88.2841 31.0542 90.9401 30.0622 92.8281 28.0782C94.7481 26.0942 95.7081 23.2942 95.7081 19.6782C95.7081 16.0622 94.7481 13.2622 92.8281 11.2782C90.9401 9.29422 88.2841 8.30222 84.8601 8.30222C81.4361 8.30222 78.7641 9.29422 76.8441 11.2782C74.9241 13.2622 73.9641 16.0622 73.9641 19.6782C73.9641 23.2942 74.9241 26.0942 76.8441 28.0782C78.7641 30.0622 81.4361 31.0542 84.8601 31.0542Z" fill="white"/>
</svg>
