<svg width="95" height="44" viewBox="0 0 95 44" fill="none" xmlns="http://www.w3.org/2000/svg">
<path d="M1.88203 14.44C2.0687 11.7893 3.00203 9.38133 4.68203 7.216C6.36203 5.05066 8.75137 3.33333 11.85 2.064C14.986 0.757332 18.7754 0.103998 23.218 0.103998C27.026 0.103998 30.33 0.607998 33.13 1.616C35.9674 2.58666 38.17 3.94933 39.738 5.704C41.306 7.42133 42.09 9.456 42.09 11.808C42.09 13.712 41.5114 15.448 40.354 17.016C39.234 18.5467 37.4607 19.7787 35.034 20.712C32.6074 21.608 29.5087 22.0373 25.738 22V20.88C29.322 20.6933 32.402 20.9547 34.978 21.664C37.554 22.3733 39.5327 23.4933 40.914 25.024C42.2954 26.5547 42.986 28.4773 42.986 30.792C42.986 33.3307 42.1834 35.5893 40.578 37.568C38.9727 39.5093 36.6207 41.0587 33.522 42.216C30.4607 43.336 26.7274 43.896 22.322 43.896C18.0287 43.896 14.2767 43.2987 11.066 42.104C7.8927 40.872 5.41003 39.1733 3.61803 37.008C1.86336 34.8053 0.911365 32.2293 0.762031 29.28H11.29C11.5887 31.3333 12.634 32.92 14.426 34.04C16.2554 35.1227 18.8874 35.664 22.322 35.664C25.57 35.664 28.034 35.1787 29.714 34.208C31.4314 33.2 32.29 31.8 32.29 30.008C32.29 28.9627 32.01 28.104 31.45 27.432C30.89 26.7227 29.938 26.1813 28.594 25.808C27.25 25.4347 25.3834 25.248 22.994 25.248H15.714V18.024H22.994C26.0927 18.024 28.2767 17.5947 29.546 16.736C30.8154 15.84 31.45 14.6827 31.45 13.264C31.45 11.696 30.7034 10.4827 29.21 9.624C27.754 8.76533 25.5514 8.336 22.602 8.336C19.5407 8.336 17.1514 8.87733 15.434 9.96C13.754 11.0053 12.746 12.4987 12.41 14.44H1.88203ZM71.2704 43.896C66.5291 43.896 62.4224 42.9813 58.9504 41.152C55.4784 39.3227 52.7904 36.784 50.8864 33.536C48.9824 30.2507 48.0304 26.4053 48.0304 22C48.0304 17.632 48.9824 13.8053 50.8864 10.52C52.7904 7.23466 55.4784 4.67733 58.9504 2.848C62.4224 1.01867 66.5291 0.103998 71.2704 0.103998C75.9744 0.103998 80.0624 1.01867 83.5344 2.848C87.0064 4.67733 89.6944 7.23466 91.5984 10.52C93.5024 13.768 94.4544 17.5947 94.4544 22C94.4544 26.368 93.5024 30.1947 91.5984 33.48C89.6944 36.7653 87.0064 39.3227 83.5344 41.152C80.0624 42.9813 75.9744 43.896 71.2704 43.896ZM71.2704 35.272C75.2651 35.272 78.3637 34.1147 80.5664 31.8C82.8064 29.4853 83.9264 26.2187 83.9264 22C83.9264 17.7813 82.8064 14.5147 80.5664 12.2C78.3637 9.88533 75.2651 8.728 71.2704 8.728C67.2757 8.728 64.1584 9.88533 61.9184 12.2C59.6784 14.5147 58.5584 17.7813 58.5584 22C58.5584 26.2187 59.6784 29.4853 61.9184 31.8C64.1584 34.1147 67.2757 35.272 71.2704 35.272Z" fill="white"/>
</svg>
