<svg width="89" height="44" viewBox="0 0 89 44" fill="none" xmlns="http://www.w3.org/2000/svg">
<path d="M22.7911 0.103998C26.3751 0.103998 29.5298 0.645331 32.2551 1.728C35.0178 2.81067 37.2578 4.28533 38.9751 6.152C40.6924 7.98133 41.7378 10.072 42.1111 12.424H32.2551C31.6951 11.1547 30.7058 10.1093 29.2871 9.288C27.8684 8.42933 25.7964 8 23.0711 8C20.1591 8 17.7511 8.54133 15.8471 9.624C13.9804 10.7067 12.5991 12.256 11.7031 14.272C10.8071 16.2507 10.3591 18.696 10.3591 21.608C10.3591 24.7067 10.8444 27.32 11.8151 29.448C12.8231 31.576 14.2978 33.2 16.2391 34.32C18.1804 35.4027 20.5511 35.944 23.3511 35.944C25.3298 35.944 26.9911 35.6827 28.3351 35.16C29.7164 34.6 30.7431 33.8347 31.4151 32.864C32.1244 31.8933 32.4791 30.8107 32.4791 29.616C32.4791 28.4213 32.1431 27.376 31.4711 26.48C30.8364 25.584 29.8844 24.8933 28.6151 24.408C27.3458 23.8853 25.7218 23.624 23.7431 23.624C21.1671 23.624 18.7031 24.2213 16.3511 25.416C14.0364 26.5733 11.9831 28.216 10.1911 30.344L6.43909 27.768C7.63376 25.4533 9.16443 23.4 11.0311 21.608C12.8978 19.7787 15.1004 18.3413 17.6391 17.296C20.1778 16.2133 23.0524 15.672 26.2631 15.672C29.6978 15.672 32.6658 16.2507 35.1671 17.408C37.7058 18.528 39.6471 20.1147 40.9911 22.168C42.3724 24.2213 43.0631 26.592 43.0631 29.28C43.0631 32.1173 42.2791 34.6373 40.7111 36.84C39.1431 39.0427 36.8844 40.7787 33.9351 42.048C30.9858 43.28 27.4204 43.896 23.2391 43.896C18.1618 43.896 13.9244 42.9627 10.5271 41.096C7.12976 39.2293 4.59109 36.6533 2.91109 33.368C1.23109 30.0453 0.391094 26.256 0.391094 22C0.391094 17.744 1.23109 13.9733 2.91109 10.688C4.59109 7.40267 7.09243 4.82667 10.4151 2.96C13.7751 1.056 17.9004 0.103998 22.7911 0.103998ZM52.3385 0.999997H84.7065V8.952H55.5305L59.7865 6.936L57.4345 22.728H54.7465C55.5679 21.3467 56.6879 20.0773 58.1065 18.92C59.5625 17.7627 61.3359 16.8293 63.4265 16.12C65.5172 15.4107 67.9439 15.056 70.7065 15.056C74.2905 15.056 77.3705 15.6533 79.9465 16.848C82.5225 18.0427 84.5012 19.6853 85.8825 21.776C87.3012 23.8667 88.0105 26.2747 88.0105 29C88.0105 31.8747 87.2079 34.432 85.6025 36.672C83.9972 38.912 81.6825 40.6853 78.6585 41.992C75.6719 43.2613 72.0879 43.896 67.9065 43.896C63.7999 43.896 60.2345 43.2987 57.2105 42.104C54.1865 40.9093 51.8159 39.2853 50.0985 37.232C48.3812 35.1413 47.3732 32.8267 47.0745 30.288H57.6025C58.0132 31.9307 59.0959 33.2373 60.8505 34.208C62.6425 35.1787 64.9945 35.664 67.9065 35.664C69.8852 35.664 71.5839 35.4027 73.0025 34.88C74.4212 34.32 75.5225 33.536 76.3065 32.528C77.0905 31.52 77.4825 30.3253 77.4825 28.944C77.4825 27.6373 77.1279 26.48 76.4185 25.472C75.7465 24.464 74.7199 23.68 73.3385 23.12C71.9945 22.56 70.3145 22.28 68.2985 22.28C66.6185 22.28 65.1065 22.4667 63.7625 22.84C62.4559 23.2133 61.2985 23.6987 60.2905 24.296C59.3199 24.8933 58.5172 25.5093 57.8825 26.144H48.8105L52.3385 0.999997Z" fill="white"/>
</svg>
