<svg width="59" height="58" viewBox="0 0 59 58" fill="none" xmlns="http://www.w3.org/2000/svg">
<g clip-path="url(#clip0_6138_276)">
<path d="M50.0458 50.8068L49.6364 50.5197C50.8185 48.8345 51.8401 46.9998 52.7042 45.0039C53.0045 44.2902 53.2901 43.5507 53.5632 42.783C52.1928 42.1523 50.9503 41.3051 49.829 40.2413C47.088 37.7001 45.6914 34.489 45.6506 30.6563L45.6506 30.6555C45.6075 25.8851 47.7147 22.1222 51.9093 19.4133C49.5743 16.356 46.1574 14.6345 41.6066 14.2672L41.6045 14.267C39.9032 14.1226 37.7821 14.4872 35.214 15.4112C35.2135 15.4114 35.213 15.4116 35.2125 15.4118L35.0432 14.9413C32.289 15.952 30.6644 16.4589 30.185 16.4589C29.5438 16.4589 28.0813 16.0254 25.8036 15.1704L50.0458 50.8068ZM50.0458 50.8068L49.6364 50.5197C48.0011 52.8513 46.6872 54.4274 45.701 55.284L45.6956 55.2886L45.6904 55.2934C44.1606 56.7003 42.5559 57.3937 40.8605 57.4348C39.6294 57.4337 38.1057 57.0815 36.2877 56.3339L36.2864 56.3334C34.3816 55.5564 32.6069 55.1615 30.9637 55.1615C29.2472 55.1615 27.4247 55.555 25.4973 56.3327L25.4968 56.3329C23.6334 57.0872 22.1795 57.4596 21.1056 57.496L21.1013 57.4962C19.5122 57.5639 17.8774 56.8701 16.1838 55.2953L16.178 55.2899L16.172 55.2847C15.0976 54.3476 13.7236 52.7118 12.0502 50.3462L12.0496 50.3453C10.2791 47.8542 8.81853 44.9586 7.6717 41.6466C6.44486 38.0729 5.8335 34.6232 5.8335 31.2922C5.8335 27.4784 6.65699 24.2184 8.28467 21.5003L8.28469 21.5003L8.2871 21.4962C9.56749 19.3109 11.2665 17.5926 13.3934 16.33C15.5178 15.069 17.8098 14.4267 20.2839 14.3848C21.5958 14.3857 23.366 14.7948 25.6285 15.6388L50.0458 50.8068ZM33.4972 4.73781L33.4995 4.73518C34.5252 3.55777 35.8364 2.57058 37.442 1.77779C38.8659 1.08395 40.2035 0.673661 41.4552 0.538646C41.4671 0.745762 41.4726 0.953339 41.4726 1.16096V1.161C41.4726 3.92766 40.4656 6.52429 38.4195 8.95315C36.0429 11.7311 33.253 13.3183 30.2805 13.2318C30.2656 13.0299 30.2575 12.822 30.2575 12.6081C30.2575 9.96383 31.4121 7.09785 33.4972 4.73781Z" fill="#FFF8E0" stroke="url(#paint0_linear_6138_276)"/>
</g>
<defs>
<linearGradient id="paint0_linear_6138_276" x1="29.7607" y1="0.000671387" x2="29.7607" y2="58.0007" gradientUnits="userSpaceOnUse">
<stop stop-color="#FFF8E0" stop-opacity="0.38"/>
<stop offset="1" stop-color="#FFF8E0" stop-opacity="0.16"/>
</linearGradient>
<clipPath id="clip0_6138_276">
<rect width="58" height="58" fill="white" transform="translate(0.5)"/>
</clipPath>
</defs>
</svg>
