<svg width="19" height="16" viewBox="0 0 19 16" fill="none" xmlns="http://www.w3.org/2000/svg">
<path d="M2.33378 3.8324V13.8324H14.8338V15.4991H2.33378C0.667114 15.4991 0.667114 13.8324 0.667114 13.8324V3.8324H2.33378ZM16.5004 2.16574V10.4991H5.66711V2.16574H16.5004ZM16.7504 0.499069H5.41711C4.63378 0.499069 4.00045 1.0824 4.00045 1.79074V10.8741C4.00045 11.5907 4.63378 12.1657 5.41711 12.1657H16.7504C17.5338 12.1657 18.1671 11.5907 18.1671 10.8741V1.79074C18.1671 1.0824 17.5338 0.499069 16.7504 0.499069ZM6.50045 2.99907H9.00045V7.16574H6.50045V2.99907ZM15.6671 9.66574H6.50045V7.99907H15.6671V9.66574ZM15.6671 4.66574H10.6671V2.99907H15.6671V4.66574ZM15.6671 7.16574H10.6671V5.49907H15.6671V7.16574Z" fill="black"/>
</svg>
