<svg width="17" height="13" viewBox="0 0 17 13" fill="none" xmlns="http://www.w3.org/2000/svg">
<path d="M0.224701 0.167618H16.8914V12.6676H0.224701V0.167618ZM15.2247 11.0009V1.83428H1.89137V11.0009H15.2247ZM12.7247 2.66762C12.7247 3.10965 12.9003 3.53357 13.2129 3.84613C13.5254 4.15869 13.9493 4.33428 14.3914 4.33428V8.50095C13.9493 8.50095 13.5254 8.67655 13.2129 8.98911C12.9003 9.30167 12.7247 9.72559 12.7247 10.1676H4.39137C4.39137 9.72559 4.21577 9.30167 3.90321 8.98911C3.59065 8.67655 3.16673 8.50095 2.7247 8.50095V4.33428C3.16673 4.33428 3.59065 4.15869 3.90321 3.84613C4.21577 3.53357 4.39137 3.10965 4.39137 2.66762H12.7247ZM12.7247 6.83428V6.00095C12.7247 5.08428 12.1664 4.33428 11.4747 4.33428C10.783 4.33428 10.2247 5.08428 10.2247 6.00095V6.83428C10.2247 7.75095 10.783 8.50095 11.4747 8.50095C12.1664 8.50095 12.7247 7.75095 12.7247 6.83428ZM11.4747 5.16762C11.5852 5.16762 11.6912 5.21152 11.7693 5.28966C11.8475 5.3678 11.8914 5.47378 11.8914 5.58428V7.25095C11.8914 7.36146 11.8475 7.46744 11.7693 7.54558C11.6912 7.62372 11.5852 7.66762 11.4747 7.66762C11.3642 7.66762 11.2582 7.62372 11.1801 7.54558C11.1019 7.46744 11.058 7.36146 11.058 7.25095V5.58428C11.058 5.47378 11.1019 5.3678 11.1801 5.28966C11.2582 5.21152 11.3642 5.16762 11.4747 5.16762ZM9.39137 6.83428V6.00095C9.39137 5.08428 8.83303 4.33428 8.14137 4.33428C7.4497 4.33428 6.89137 5.08428 6.89137 6.00095V6.83428C6.89137 7.75095 7.4497 8.50095 8.14137 8.50095C8.83303 8.50095 9.39137 7.75095 9.39137 6.83428ZM8.14137 5.16762C8.25187 5.16762 8.35786 5.21152 8.436 5.28966C8.51414 5.3678 8.55803 5.47378 8.55803 5.58428V7.25095C8.55803 7.36146 8.51414 7.46744 8.436 7.54558C8.35786 7.62372 8.25187 7.66762 8.14137 7.66762C8.03086 7.66762 7.92488 7.62372 7.84674 7.54558C7.7686 7.46744 7.7247 7.36146 7.7247 7.25095V5.58428C7.7247 5.47378 7.7686 5.3678 7.84674 5.28966C7.92488 5.21152 8.03086 5.16762 8.14137 5.16762ZM5.2247 8.50095H6.05803V4.33428H5.2247L4.39137 4.75095V5.58428L5.2247 5.16762V8.50095Z" fill="black"/>
</svg>
