<svg width="207" height="51" viewBox="0 0 207 51" fill="none" xmlns="http://www.w3.org/2000/svg">
<path d="M45.0721 30.8242C45.8117 31.2158 46.5994 31.7389 47.1847 32.3382C47.4814 32.6419 47.7949 33.0761 47.8941 33.4948C47.9346 33.6658 47.9236 33.8547 47.9254 34.0299L47.9267 34.901C47.9185 35.6698 47.5455 36.2165 47.0167 36.7358C46.4558 37.2118 45.7757 37.4231 45.0842 37.6317C45.0471 37.5613 45.0688 37.3738 45.069 37.2892L45.0704 36.1529L45.0721 30.8242Z" fill="#DE8737"/>
<path d="M45.0901 17.04C46.172 17.2631 47.0647 17.8087 47.9194 18.4916C47.9501 18.6873 47.9313 18.9093 47.9317 19.1079L47.9335 20.2026L47.9256 24.3087C47.56 24.1533 47.2347 23.9172 46.9026 23.7013L45.0747 22.5042L45.0901 17.04Z" fill="#DE8737"/>
<path d="M6.20454 22.1602L7.58777 24.0682L8.00699 24.6462C8.04446 24.6986 8.12811 24.7848 8.14563 24.8404C8.17355 24.9288 8.14543 25.1509 8.14536 25.2518L8.14484 26.6528L8.1503 32.8361C7.66022 32.694 7.18377 32.4227 6.82509 32.0568C6.5183 31.744 6.30774 31.3311 6.2235 30.9019C6.17114 30.6353 6.19775 30.3224 6.19716 30.0497L6.19558 28.4243L6.20454 22.1602Z" fill="#DE8737"/>
<path d="M36.7564 37.4282L36.7655 41.8741L45.0303 41.847L45.0274 41.2552C45.549 41.2052 46.0658 41.1661 46.5807 41.0621C47.0254 40.9724 47.4572 40.828 47.8855 40.6806C47.8829 41.1109 47.8351 41.6241 47.9184 42.0448C47.9781 42.3459 48.1167 42.6535 48.279 42.9119C48.8733 43.8579 49.9044 44.1904 50.9338 44.4172C50.5469 44.4787 50.1102 44.446 49.7169 44.4464L47.4833 44.4462L32.0815 44.452L36.7564 37.4282Z" fill="#DE8737"/>
<path d="M34.1879 6.38511L45.7949 6.38953L49.2493 6.38755C49.8847 6.38742 50.5763 6.33536 51.2045 6.43638C50.9306 6.49932 50.6503 6.51909 50.3778 6.58532C49.575 6.78053 48.8224 7.25443 48.3822 7.96413C48.1822 8.28646 48.0182 8.65255 47.9571 9.02892C47.8695 9.5674 47.9285 10.1832 47.9286 10.7329L47.9283 14.3931C47.0513 13.9338 46.0675 13.5581 45.0786 13.4431L45.091 8.9379L37.138 8.95682C37.0274 8.95761 36.8198 8.92222 36.7422 9.0073L36.7361 9.01975C36.7978 9.47797 36.753 10.0023 36.7536 10.4672L36.7395 13.0826L32.2896 6.38907L34.1879 6.38511Z" fill="#DE8737"/>
<path d="M11.5228 6.37305L21.0716 6.3861L16.5266 13.2527C16.4982 13.1248 16.5143 12.9767 16.5146 12.8457L16.5169 12.0298L16.5145 8.98416L9.90914 8.98924L8.04867 8.9922L8.05933 14.9633L5.40989 14.9668L5.39633 11.2003C5.39251 10.6279 5.44348 9.9841 5.36458 9.42208C5.30069 8.96755 5.1853 8.57853 4.95768 8.17824C4.52405 7.41549 3.74872 6.94528 2.93374 6.6843C2.61865 6.58341 2.29468 6.52409 1.97656 6.43532C2.20761 6.38089 2.51769 6.40962 2.75584 6.40587L4.74403 6.39183L11.5228 6.37305Z" fill="#DE8737"/>
<path d="M20.2438 44.4525C20.0015 44.4846 19.7398 44.4641 19.4944 44.4638L18.1029 44.4591L13.5114 44.4516L5.8389 44.4509L3.41181 44.451C2.89169 44.4508 2.36756 44.4659 1.84863 44.431C2.84118 44.2465 3.86039 44.0159 4.59838 43.2767C4.92565 42.9489 5.17165 42.5373 5.2842 42.0854C5.48607 41.2748 5.39643 40.3069 5.39637 39.4724L5.38688 35.9771L8.14908 35.9781L8.14684 41.9089L16.6079 41.9121L16.6066 37.596L20.4811 43.2615L21.2878 44.4519L20.2438 44.4525Z" fill="#DE8737"/>
<path d="M20.2439 44.4522C20.1422 44.4369 19.9752 44.4599 19.8872 44.415L20.6918 44.4044L20.777 44.2675C20.8063 44.2219 20.847 44.1719 20.8635 44.1199C20.8869 44.0462 20.8815 43.9705 20.8425 43.9042L20.765 43.7807C20.7215 43.7028 20.6654 43.6421 20.6201 43.567C20.5734 43.4897 20.5097 43.425 20.4751 43.341L20.4635 43.3111L20.4216 43.2818L20.4812 43.2612L21.2879 44.4516L20.2439 44.4522Z" fill="#DE8737"/>
<path fill-rule="evenodd" clip-rule="evenodd" d="M30.7222 17.405C29.7719 17.2827 28.8246 17.1608 27.8612 17.1803C26.7325 17.2167 25.5542 17.5486 24.7554 18.3957C24.1699 19.0166 23.9009 19.8449 23.9272 20.6922C23.9565 21.6353 24.3065 22.4085 24.7718 23.2125C24.7299 23.2332 24.6878 23.2538 24.6457 23.2745C23.0368 24.0651 21.338 24.8998 20.721 26.7204C20.3204 27.9025 20.3613 29.3292 20.9194 30.4528C21.4074 31.4356 22.4095 32.1048 23.4317 32.4384C24.0382 32.6363 24.6837 32.7252 25.3184 32.7623C27.0518 32.8636 28.8091 32.5173 30.3572 31.7226L31.8933 30.7584C34.0842 32.347 36.3212 32.7884 38.9602 32.3665L39.4315 32.287C38.6007 32.2264 37.7869 32.093 36.9979 31.8173C35.857 31.4187 34.854 30.747 33.9136 30.0024L33.1214 29.3485C33.1897 29.1678 33.3313 28.9788 33.4664 28.7987C33.5372 28.7042 33.6062 28.6121 33.6618 28.525C33.942 28.0862 34.1629 27.6274 34.347 27.1406C34.4477 26.8742 34.5387 26.5917 34.5971 26.3127L34.7574 25.3654C34.7616 25.3365 34.7656 25.3071 34.7696 25.2773C34.7955 25.0852 34.8234 24.8791 34.9314 24.7188C35.0585 24.5303 35.2473 24.42 35.4365 24.3093C35.4974 24.2737 35.5584 24.238 35.6174 24.1997C35.6944 24.1497 35.7693 24.0965 35.8441 24.0434C35.9538 23.9655 36.0635 23.8877 36.1798 23.8197L32.9537 23.7952C32.8282 23.7958 32.6996 23.7941 32.5696 23.7922C32.1946 23.787 31.808 23.7816 31.45 23.835C31.5851 23.8821 31.7189 23.9004 31.8539 23.9188C31.9418 23.9308 32.0301 23.9428 32.1196 23.963C32.6149 24.0743 33.0414 24.4371 33.2569 24.8925C33.595 25.6065 33.5309 26.5584 33.2621 27.2853C33.082 27.7722 32.8032 28.2623 32.4484 28.6421C32.0969 28.3388 31.767 27.9967 31.4396 27.6572C31.2975 27.5099 31.1559 27.3631 31.0132 27.2201L27.9226 23.9101C27.9042 23.8889 27.8857 23.8676 27.8672 23.8463C27.2679 23.1572 26.6524 22.4495 26.1714 21.6729C25.8988 21.2327 25.647 20.7078 25.6053 20.1856C25.5625 19.6487 25.6767 19.1309 26.0345 18.7175C26.4528 18.2343 26.9613 18.0597 27.5841 18.0242C28.3053 17.9832 29.1184 18.0938 29.6727 18.5947C30.2384 19.1061 30.4199 19.7901 30.5735 20.5062L30.6113 20.6832C30.612 20.6862 30.6119 20.6897 30.6119 20.6933C30.6118 20.7004 30.6117 20.7075 30.6172 20.7105C30.6701 20.7399 30.7644 20.7528 30.8564 20.7653C30.9225 20.7743 30.9874 20.7832 31.0349 20.7979C31.0348 20.6026 31.0305 20.4034 31.0262 20.2022C31.0066 19.2816 30.9859 18.3173 31.3586 17.4854C31.1462 17.4596 30.9341 17.4323 30.7222 17.405ZM27.3064 26.3707C26.5569 25.5661 25.8134 24.7457 25.1865 23.8402C24.1089 24.3962 23.1487 24.9439 22.7606 26.1713C22.4729 27.081 22.6117 28.2849 23.0517 29.1297C23.5369 30.0613 24.4531 30.7706 25.4478 31.0816C26.3784 31.3726 27.4233 31.4 28.3838 31.2541C29.1138 31.1305 29.7955 30.9581 30.4411 30.5795L30.4506 30.5739C30.6408 30.4623 30.8449 30.3426 30.9949 30.1797L31.0189 30.0964C30.8891 29.9375 30.7293 29.799 30.5717 29.6624C30.5134 29.6118 30.4553 29.5614 30.3992 29.5104L29.5824 28.7254L27.3064 26.3707Z" fill="#FFF8E0"/>
<path d="M48.2298 31.769C48.0485 31.6439 47.8672 31.393 47.6981 31.2372C47.3078 30.8773 46.887 30.5567 46.4454 30.2624L43.2728 28.2573C41.1331 26.9543 38.6341 25.6355 37.445 23.3145C36.7716 22 36.6279 20.501 37.0946 19.092C37.633 17.4664 38.9249 16.0963 40.4412 15.3311C42.1523 14.4674 44.1669 14.198 46.0096 14.8115C46.4779 14.9223 46.9412 15.1022 47.3761 15.3083C48.1281 15.6647 49.1064 16.3848 49.9504 15.8838C50.1105 15.7888 50.2181 15.6765 50.3359 15.5344C50.4177 15.4358 50.49 15.3111 50.6119 15.2613C50.6837 15.3392 50.717 15.3755 50.724 15.4838C50.7428 15.7792 50.7251 16.0875 50.7249 16.384L50.7217 18.1376C50.7194 19.101 50.7676 20.0977 50.7107 21.0579L50.6871 21.213C50.605 21.2667 50.544 21.2522 50.4472 21.2532C50.3337 21.1157 50.2839 20.9205 50.2227 20.7545L49.9277 19.9764C49.7076 19.4169 49.4563 18.8592 49.1126 18.3636C48.6232 17.6575 47.8354 16.9904 47.0785 16.589C46.7355 16.4071 46.3693 16.2748 46.0093 16.1316C45.642 16.0385 45.2792 15.9198 44.9061 15.8518C44.2319 15.729 43.5329 15.7329 42.859 15.8496C42.0589 15.9884 41.3175 16.4069 40.8553 17.0819C40.3853 17.7685 40.3361 18.7372 40.4967 19.5295C40.837 21.208 42.6764 22.3067 44.0073 23.1749L47.4158 25.403L48.0557 25.8284C48.1467 25.8893 48.2864 25.9598 48.355 26.0408C50.2647 27.1945 52.2302 28.9901 52.8006 31.218C53.2433 32.9472 52.9346 34.6914 52.0201 36.2086C50.8804 38.0992 48.8119 39.3484 46.7053 39.8607C45.9839 40.0362 45.2479 40.1719 44.5022 40.1678C42.0462 40.2392 39.7762 39.5385 37.7195 38.2128L37.7426 35.2349C38.04 35.6483 38.3447 36.0552 38.7067 36.4152C39.8238 37.5262 41.253 38.32 42.8072 38.6052C43.414 38.7166 44.0147 38.7468 44.6301 38.7452C44.8734 38.7053 45.1186 38.6943 45.3614 38.6503C46.2112 38.4962 46.982 38.2228 47.6725 37.69C48.6323 36.9493 49.1068 36.0023 49.2541 34.8091C49.3951 33.6666 48.907 32.6463 48.2298 31.769Z" fill="#FFCF25"/>
<path d="M26.6419 0.296875C26.7614 0.393817 26.8534 0.560287 26.9415 0.687413L27.4933 1.49953L29.2541 4.1488L33.6476 10.8308L35.3012 13.3379L37.3082 16.4263C36.5453 17.2706 35.9555 18.4677 35.7035 19.5758C35.6221 19.9333 35.5935 20.3043 35.5279 20.6654L26.6285 7.14781L24.0659 11.0603L15.3775 24.2044L13.0337 20.7342L26.6419 0.296875Z" fill="#FFEF9C"/>
<path d="M8.46356 23.2309C8.33836 23.1113 8.23752 22.929 8.13972 22.7858L7.50882 21.8556L5.05295 18.2116L5.06441 27.3144L5.0708 29.5601C5.07284 30.0072 5.02562 30.5257 5.1335 30.9582C5.338 31.7781 5.66376 32.4524 6.28444 33.0437C7.5075 34.2089 9.12297 34.3549 10.7257 34.3184L10.7214 34.8978L0.00605901 34.8958L0 34.3632C1.06769 34.3672 1.98067 34.2923 2.89082 33.6765C3.61458 33.1867 4.13865 32.418 4.30173 31.555C4.36186 31.2367 4.40447 30.9104 4.41402 30.5865L4.41863 27.6192L4.42311 21.9068L4.42528 19.6704C4.42541 19.5333 4.46566 19.1973 4.42588 19.0848C4.37108 18.93 4.2053 18.727 4.11053 18.588C3.46528 17.6416 2.4697 16.8799 1.32745 16.672L1.26449 16.6609C0.862663 16.5879 0.456293 16.5889 0.0491987 16.5821C0.00381961 16.5188 0.0322067 16.1766 0.0327995 16.0825L8.3622 16.1018C8.46191 16.1861 8.53561 16.3286 8.60865 16.4383L9.07298 17.129L11.3575 20.4965L20.5729 34.0984L26.6661 43.2199L32.472 34.3981L36.6652 34.409L36.6661 35.032C36.6662 35.0679 36.6786 35.1759 36.6664 35.2064C36.5944 35.3868 36.387 35.6164 36.2742 35.7817L35.2468 37.3105L30.1522 44.9464L28.4987 47.4464L27.0908 49.6394C26.9695 49.8244 26.825 50.1217 26.6687 50.2715L26.6349 50.2967L17.214 36.1582C17.1117 36.0857 17.018 35.9055 16.9464 35.8019L16.2489 34.7634L14.9931 32.9096L10.5847 26.3577L9.09222 24.1639C8.886 23.8589 8.63171 23.5573 8.46356 23.2309Z" fill="#FFCF25"/>
<path d="M96.8502 8.29687V23.2969H94.3302V9.09687L95.1502 9.13687L88.1702 23.2969H85.3502L78.3702 9.15687L79.1902 9.11687V23.2969H76.6702V8.29687H80.7102L87.4302 22.1569H86.1102L92.8102 8.29687H96.8502ZM108.005 23.5769C106.299 23.5769 104.799 23.2502 103.505 22.5969C102.212 21.9435 101.205 21.0369 100.485 19.8769C99.7654 18.7035 99.4054 17.3435 99.4054 15.7969C99.4054 14.2502 99.7654 12.8969 100.485 11.7369C101.205 10.5635 102.212 9.65021 103.505 8.99687C104.799 8.34354 106.299 8.01687 108.005 8.01687C109.712 8.01687 111.212 8.34354 112.505 8.99687C113.799 9.65021 114.805 10.5635 115.525 11.7369C116.245 12.8969 116.605 14.2502 116.605 15.7969C116.605 17.3435 116.245 18.7035 115.525 19.8769C114.805 21.0369 113.799 21.9435 112.505 22.5969C111.212 23.2502 109.712 23.5769 108.005 23.5769ZM108.005 21.2169C109.219 21.2169 110.265 20.9969 111.145 20.5569C112.025 20.1169 112.705 19.4902 113.185 18.6769C113.679 17.8635 113.925 16.9035 113.925 15.7969C113.925 14.6902 113.679 13.7302 113.185 12.9169C112.705 12.1035 112.025 11.4769 111.145 11.0369C110.265 10.5969 109.219 10.3769 108.005 10.3769C106.805 10.3769 105.759 10.5969 104.865 11.0369C103.985 11.4769 103.299 12.1035 102.805 12.9169C102.325 13.7302 102.085 14.6902 102.085 15.7969C102.085 16.9035 102.325 17.8635 102.805 18.6769C103.299 19.4902 103.985 20.1169 104.865 20.5569C105.759 20.9969 106.805 21.2169 108.005 21.2169ZM121.01 15.0569H127.11C127.99 15.0569 128.684 14.8569 129.19 14.4569C129.71 14.0569 129.97 13.5102 129.97 12.8169C129.97 12.1102 129.71 11.5635 129.19 11.1769C128.684 10.7769 127.99 10.5769 127.11 10.5769H120.63L121.81 9.09687V23.2969H119.17V8.29687H127.35C128.404 8.29687 129.324 8.49021 130.11 8.87687C130.91 9.25021 131.53 9.77687 131.97 10.4569C132.424 11.1235 132.65 11.9102 132.65 12.8169C132.65 13.6969 132.424 14.4769 131.97 15.1569C131.53 15.8235 130.91 16.3502 130.11 16.7369C129.324 17.1102 128.404 17.2969 127.35 17.2969H121.01V15.0569ZM123.97 16.2769H127.07L133.03 23.2969H129.87L123.97 16.2769ZM150.284 16.7769C150.271 17.7102 150.091 18.5902 149.744 19.4169C149.397 20.2302 148.904 20.9502 148.264 21.5769C147.624 22.2035 146.844 22.6969 145.924 23.0569C145.017 23.4035 143.977 23.5769 142.804 23.5769C141.617 23.5769 140.517 23.3969 139.504 23.0369C138.491 22.6769 137.604 22.1635 136.844 21.4969C136.097 20.8169 135.517 19.9969 135.104 19.0369C134.691 18.0769 134.484 16.9969 134.484 15.7969C134.484 14.5969 134.691 13.5169 135.104 12.5569C135.531 11.5969 136.124 10.7835 136.884 10.1169C137.644 9.43687 138.537 8.91687 139.564 8.55687C140.591 8.19687 141.717 8.01687 142.944 8.01687C144.477 8.01687 145.817 8.27021 146.964 8.77687C148.124 9.27021 149.057 9.95021 149.764 10.8169C150.471 11.6835 150.904 12.6769 151.064 13.7969H148.384C148.237 13.0902 147.917 12.4769 147.424 11.9569C146.944 11.4369 146.324 11.0369 145.564 10.7569C144.804 10.4769 143.924 10.3369 142.924 10.3369C141.751 10.3369 140.731 10.5569 139.864 10.9969C139.011 11.4235 138.344 12.0435 137.864 12.8569C137.397 13.6702 137.164 14.6502 137.164 15.7969C137.164 16.9435 137.404 17.9302 137.884 18.7569C138.377 19.5835 139.071 20.2169 139.964 20.6569C140.857 21.0969 141.911 21.3169 143.124 21.3169C144.297 21.3169 145.324 21.1169 146.204 20.7169C147.084 20.3169 147.777 19.7635 148.284 19.0569C148.791 18.3369 149.064 17.5035 149.104 16.5569L150.284 16.7769ZM143.644 17.9169V15.9169H151.224V23.2969H149.264L148.944 17.0769L149.564 17.9169H143.644ZM155.916 19.8569V17.6769H166.396V19.8569H155.916ZM162.876 8.29687L170.076 23.2969H167.256L160.716 9.29687H161.736L155.196 23.2969H152.376L159.576 8.29687H162.876ZM185.805 21.6969L184.725 21.8169V8.29687H187.285V23.2969H183.925L173.405 9.77687L174.465 9.65687V23.2969H171.905V8.29687H175.345L185.805 21.6969ZM189.715 18.4169H192.395C192.475 19.0169 192.722 19.5435 193.135 19.9969C193.562 20.4502 194.122 20.8035 194.815 21.0569C195.508 21.2969 196.308 21.4169 197.215 21.4169C198.562 21.4169 199.628 21.2102 200.415 20.7969C201.202 20.3702 201.595 19.7969 201.595 19.0769C201.595 18.4902 201.368 18.0502 200.915 17.7569C200.462 17.4635 199.642 17.2435 198.455 17.0969L195.215 16.6769C193.402 16.4369 192.082 15.9902 191.255 15.3369C190.442 14.6702 190.035 13.7302 190.035 12.5169C190.035 11.5969 190.308 10.8035 190.855 10.1369C191.415 9.45687 192.202 8.93687 193.215 8.57687C194.228 8.20354 195.415 8.01687 196.775 8.01687C198.122 8.01687 199.315 8.21687 200.355 8.61687C201.395 9.01687 202.222 9.57687 202.835 10.2969C203.462 11.0035 203.802 11.8369 203.855 12.7969H201.175C201.108 12.2635 200.882 11.8035 200.495 11.4169C200.122 11.0302 199.615 10.7302 198.975 10.5169C198.335 10.2902 197.582 10.1769 196.715 10.1769C195.488 10.1769 194.508 10.3769 193.775 10.7769C193.042 11.1769 192.675 11.7235 192.675 12.4169C192.675 12.9502 192.888 13.3635 193.315 13.6569C193.755 13.9369 194.515 14.1502 195.595 14.2969L198.875 14.7569C200.222 14.9435 201.282 15.1969 202.055 15.5169C202.842 15.8235 203.402 16.2435 203.735 16.7769C204.068 17.2969 204.235 17.9702 204.235 18.7969C204.235 19.7569 203.942 20.5969 203.355 21.3169C202.768 22.0369 201.942 22.5969 200.875 22.9969C199.822 23.3835 198.588 23.5769 197.175 23.5769C195.735 23.5769 194.462 23.3635 193.355 22.9369C192.262 22.4969 191.395 21.8902 190.755 21.1169C190.115 20.3435 189.768 19.4435 189.715 18.4169ZM102.199 32.3369H99.5994C99.506 31.6302 99.1927 31.0569 98.6594 30.6169C98.1394 30.1769 97.406 29.9569 96.4594 29.9569C95.9127 29.9569 95.4327 30.0302 95.0194 30.1769C94.606 30.3235 94.2794 30.5435 94.0394 30.8369C93.8127 31.1169 93.6994 31.4635 93.6994 31.8769C93.6994 32.1702 93.7927 32.4902 93.9794 32.8369C94.1794 33.1835 94.5194 33.5569 94.9994 33.9569L106.039 43.2969H102.659L92.9794 35.1369C92.2994 34.5502 91.786 33.9835 91.4394 33.4369C91.106 32.8902 90.9394 32.3235 90.9394 31.7369C90.9394 30.9902 91.1594 30.3435 91.5994 29.7969C92.0394 29.2369 92.666 28.8035 93.4794 28.4969C94.306 28.1769 95.2794 28.0169 96.3994 28.0169C97.586 28.0169 98.5994 28.2035 99.4394 28.5769C100.293 28.9502 100.953 29.4635 101.419 30.1169C101.886 30.7569 102.146 31.4969 102.199 32.3369ZM102.339 35.3569H105.119L101.139 40.2769C100.553 41.0102 99.9394 41.6235 99.2994 42.1169C98.6727 42.5969 97.986 42.9635 97.2394 43.2169C96.4927 43.4569 95.646 43.5769 94.6994 43.5769C93.526 43.5769 92.5194 43.3835 91.6794 42.9969C90.8527 42.5969 90.2127 42.0702 89.7594 41.4169C89.3194 40.7635 89.0994 40.0369 89.0994 39.2369C89.0994 38.4769 89.2927 37.7969 89.6794 37.1969C90.066 36.5835 90.6527 36.0635 91.4394 35.6369C92.2394 35.2102 93.246 34.9102 94.4594 34.7369L95.1194 35.7969C94.026 36.0502 93.186 36.4502 92.5994 36.9969C92.0127 37.5435 91.7194 38.1835 91.7194 38.9169C91.7194 39.3835 91.846 39.8169 92.0994 40.2169C92.366 40.6169 92.7394 40.9369 93.2194 41.1769C93.7127 41.4169 94.2994 41.5369 94.9794 41.5369C96.0327 41.5369 96.9194 41.3235 97.6394 40.8969C98.3594 40.4702 98.9927 39.8902 99.5394 39.1569L102.339 35.3569ZM111.112 38.4169H113.792C113.872 39.0169 114.118 39.5435 114.532 39.9969C114.958 40.4502 115.518 40.8035 116.212 41.0569C116.905 41.2969 117.705 41.4169 118.612 41.4169C119.958 41.4169 121.025 41.2102 121.812 40.7969C122.598 40.3702 122.992 39.7969 122.992 39.0769C122.992 38.4902 122.765 38.0502 122.312 37.7569C121.858 37.4635 121.038 37.2435 119.852 37.0969L116.612 36.6769C114.798 36.4369 113.478 35.9902 112.652 35.3369C111.838 34.6702 111.432 33.7302 111.432 32.5169C111.432 31.5969 111.705 30.8035 112.252 30.1369C112.812 29.4569 113.598 28.9369 114.612 28.5769C115.625 28.2035 116.812 28.0169 118.172 28.0169C119.518 28.0169 120.712 28.2169 121.752 28.6169C122.792 29.0169 123.618 29.5769 124.232 30.2969C124.858 31.0035 125.198 31.8369 125.252 32.7969H122.572C122.505 32.2635 122.278 31.8035 121.892 31.4169C121.518 31.0302 121.012 30.7302 120.372 30.5169C119.732 30.2902 118.978 30.1769 118.112 30.1769C116.885 30.1769 115.905 30.3769 115.172 30.7769C114.438 31.1769 114.072 31.7235 114.072 32.4169C114.072 32.9502 114.285 33.3635 114.712 33.6569C115.152 33.9369 115.912 34.1502 116.992 34.2969L120.272 34.7569C121.618 34.9435 122.678 35.1969 123.452 35.5169C124.238 35.8235 124.798 36.2435 125.132 36.7769C125.465 37.2969 125.632 37.9702 125.632 38.7969C125.632 39.7569 125.338 40.5969 124.752 41.3169C124.165 42.0369 123.338 42.5969 122.272 42.9969C121.218 43.3835 119.985 43.5769 118.572 43.5769C117.132 43.5769 115.858 43.3635 114.752 42.9369C113.658 42.4969 112.792 41.8902 112.152 41.1169C111.512 40.3435 111.165 39.4435 111.112 38.4169ZM132.321 29.5169H134.961V43.2969H132.321V29.5169ZM126.121 28.2969H141.161V30.6169H126.121V28.2969ZM142.547 39.8569V37.6769H153.027V39.8569H142.547ZM149.507 28.2969L156.707 43.2969H153.887L147.347 29.2969H148.367L141.827 43.2969H139.007L146.207 28.2969H149.507ZM172.435 41.6969L171.355 41.8169V28.2969H173.915V43.2969H170.555L160.035 29.7769L161.095 29.6569V43.2969H158.535V28.2969H161.975L172.435 41.6969ZM176.346 38.4169H179.026C179.106 39.0169 179.353 39.5435 179.766 39.9969C180.193 40.4502 180.753 40.8035 181.446 41.0569C182.139 41.2969 182.939 41.4169 183.846 41.4169C185.193 41.4169 186.259 41.2102 187.046 40.7969C187.833 40.3702 188.226 39.7969 188.226 39.0769C188.226 38.4902 187.999 38.0502 187.546 37.7569C187.093 37.4635 186.273 37.2435 185.086 37.0969L181.846 36.6769C180.033 36.4369 178.713 35.9902 177.886 35.3369C177.073 34.6702 176.666 33.7302 176.666 32.5169C176.666 31.5969 176.939 30.8035 177.486 30.1369C178.046 29.4569 178.833 28.9369 179.846 28.5769C180.859 28.2035 182.046 28.0169 183.406 28.0169C184.753 28.0169 185.946 28.2169 186.986 28.6169C188.026 29.0169 188.853 29.5769 189.466 30.2969C190.093 31.0035 190.433 31.8369 190.486 32.7969H187.806C187.739 32.2635 187.513 31.8035 187.126 31.4169C186.753 31.0302 186.246 30.7302 185.606 30.5169C184.966 30.2902 184.213 30.1769 183.346 30.1769C182.119 30.1769 181.139 30.3769 180.406 30.7769C179.673 31.1769 179.306 31.7235 179.306 32.4169C179.306 32.9502 179.519 33.3635 179.946 33.6569C180.386 33.9369 181.146 34.1502 182.226 34.2969L185.506 34.7569C186.853 34.9435 187.913 35.1969 188.686 35.5169C189.473 35.8235 190.033 36.2435 190.366 36.7769C190.699 37.2969 190.866 37.9702 190.866 38.7969C190.866 39.7569 190.573 40.5969 189.986 41.3169C189.399 42.0369 188.573 42.5969 187.506 42.9969C186.453 43.3835 185.219 43.5769 183.806 43.5769C182.366 43.5769 181.093 43.3635 179.986 42.9369C178.893 42.4969 178.026 41.8902 177.386 41.1169C176.746 40.3435 176.399 39.4435 176.346 38.4169Z" fill="#FFCF25"/>
</svg>
