<svg width="93" height="23" viewBox="0 0 93 23" fill="none" xmlns="http://www.w3.org/2000/svg">
<path d="M3.29863 9.86H19.5886V14.69H3.29863V9.86ZM20.1286 0.499998V5.33H3.41863L6.20863 2.54V23H0.538633V0.499998H20.1286ZM27.3495 10.4H35.7795C36.8395 10.4 37.6795 10.16 38.2995 9.68C38.9195 9.18 39.2295 8.49 39.2295 7.61C39.2295 6.73 38.9195 6.05 38.2995 5.57C37.6795 5.07 36.8395 4.82 35.7795 4.82H26.5395L29.0895 2.03V23H23.4195V0.499998H36.5295C38.2095 0.499998 39.6795 0.799999 40.9395 1.4C42.1995 2 43.1795 2.83 43.8795 3.89C44.5795 4.95 44.9295 6.19 44.9295 7.61C44.9295 9.01 44.5795 10.24 43.8795 11.3C43.1795 12.36 42.1995 13.19 40.9395 13.79C39.6795 14.39 38.2095 14.69 36.5295 14.69H27.3495V10.4ZM30.9795 12.47H37.3695L45.6495 23H39.0795L30.9795 12.47ZM67.5448 9.65V13.85H51.2548V9.65H67.5448ZM55.0948 11.75L53.5948 21.05L51.2248 18.35H68.5048V23H47.9248L49.6648 11.75L47.9248 0.499998H68.3548V5.15H51.2248L53.5948 2.45L55.0948 11.75ZM91.1581 9.65V13.85H74.8681V9.65H91.1581ZM78.7081 11.75L77.2081 21.05L74.8381 18.35H92.1181V23H71.5381L73.2781 11.75L71.5381 0.499998H91.9681V5.15H74.8381L77.2081 2.45L78.7081 11.75Z" fill="white"/>
</svg>
