<svg width="65" height="47" viewBox="0 0 65 47" fill="none" xmlns="http://www.w3.org/2000/svg">
<path d="M11.2469 21.6552L10.7377 22.2059C9.5043 21.0654 8.53026 19.702 7.87793 18.1963C7.22802 16.6963 6.91172 15.0881 6.94978 13.4689C6.91172 11.8497 7.22802 10.2415 7.87793 8.74153C8.53027 7.23591 9.50431 5.87253 10.7377 4.73207C11.971 3.59171 13.4383 2.69747 15.0494 2.10061C16.6555 1.50562 18.3732 1.21771 20.1 1.25287C21.8267 1.21771 23.5445 1.50562 25.1506 2.1006C26.7619 2.69746 28.2289 3.59169 29.4621 4.73201C30.6958 5.87246 31.6698 7.23584 32.322 8.74148C32.9721 10.2416 33.2882 11.8498 33.2502 13.4689C33.2882 15.0881 32.9721 16.6963 32.322 18.1964C31.6699 19.702 30.6958 21.0654 29.4622 22.2059C28.229 23.3461 26.762 24.2404 25.1506 24.8371L11.2469 21.6552ZM11.2469 21.6552L10.7377 22.2059C11.9709 23.3461 13.4382 24.2404 15.0494 24.8371C16.6555 25.4322 18.3733 25.72 20.1 25.6849C21.8267 25.72 23.5444 25.4323 25.1505 24.8372L11.2469 21.6552ZM54.95 13.4689V12.7189H54.2H48H47.25V13.4689V21.3183H38.7H37.95V22.0683V27.8012V28.5512H38.7H47.25V36.4006V37.1506H48H54.2H54.95V36.4006V28.5512H63.5H64.25V27.8012V22.0683V21.3183H63.5H54.95V13.4689ZM25.551 13.4296L25.549 13.4689L25.551 13.5082C25.5851 14.1571 25.4719 14.8069 25.2173 15.4166C24.9625 16.0265 24.5708 16.5849 24.0635 17.054C23.5561 17.5232 22.9446 17.8923 22.2668 18.1343C21.5889 18.3764 20.8621 18.4852 20.1336 18.4525L20.1 18.451L20.0664 18.4525C19.3379 18.4852 18.6111 18.3764 17.9332 18.1343L17.681 18.8406L17.9332 18.1343C17.2554 17.8923 16.6439 17.5232 16.1365 17.054C15.6292 16.5849 15.2375 16.0265 14.9827 15.4167C14.7281 14.807 14.615 14.1572 14.649 13.5081L14.651 13.4689L14.649 13.4298C14.615 12.7807 14.7281 12.1308 14.9827 11.5212C15.2374 10.9113 15.6292 10.3529 16.1365 9.88384C16.6439 9.41463 17.2554 9.04559 17.9332 8.80355L17.681 8.09723L17.9332 8.80355C18.6111 8.56149 19.3379 8.45266 20.0665 8.48523L20.1 8.48672L20.1335 8.48523C20.8621 8.45266 21.5889 8.56149 22.2668 8.80355L22.519 8.09723L22.2668 8.80355C22.9446 9.04559 23.5561 9.41463 24.0635 9.88384C24.5708 10.3529 24.9625 10.9113 25.2173 11.5212C25.4719 12.1309 25.5851 12.7807 25.551 13.4296ZM31.75 45V45.75H32.5H38.7H39.45V45V42.1335C39.45 40.1444 39.0263 38.1762 38.2046 36.3422C37.383 34.5084 36.1807 32.846 34.6692 31.4485C33.1579 30.051 31.3669 28.9453 29.3998 28.1918L29.3997 28.1918C27.4328 27.4386 25.3262 27.0512 23.2 27.0512H17C12.7084 27.0512 8.58182 28.6271 5.53067 31.4485C2.47752 34.2716 0.75 38.1136 0.75 42.1335V45V45.75H1.5H7.7H8.45V45V42.1335C8.45 40.0717 9.33533 38.0809 10.9331 36.6036C12.5328 35.1243 14.7143 34.2841 17 34.2841H23.2C25.4857 34.2841 27.6671 35.1243 29.2668 36.6036C30.8646 38.0809 31.75 40.0717 31.75 42.1335V45Z" fill="white" stroke="white" stroke-width="1.5"/>
</svg>
