<svg width="66" height="47" viewBox="0 0 66 47" fill="none" xmlns="http://www.w3.org/2000/svg">
<path d="M11.7469 21.3334L11.2377 21.8841C10.0043 20.7437 9.03026 19.3802 8.37793 17.8745C7.72802 16.3746 7.41172 14.7663 7.44978 13.1471C7.41172 11.5279 7.72802 9.91974 8.37793 8.41975C9.03027 6.91414 10.0043 5.55075 11.2377 4.41029C12.471 3.26993 13.9383 2.37569 15.5494 1.77883C17.1555 1.18385 18.8732 0.89593 20.6 0.931096C22.3267 0.89593 24.0445 1.18384 25.6506 1.77882C27.2619 2.37568 28.7289 3.26992 29.9621 4.41023C31.1958 5.55068 32.1698 6.91406 32.822 8.4197C33.4721 9.91977 33.7882 11.528 33.7502 13.1471C33.7882 14.7663 33.4721 16.3745 32.822 17.8746C32.1699 19.3803 31.1958 20.7437 29.9622 21.8841C28.729 23.0243 27.262 23.9186 25.6506 24.5153L11.7469 21.3334ZM11.7469 21.3334L11.2377 21.8841C12.4709 23.0244 13.9382 23.9186 15.5494 24.5153C17.1555 25.1105 18.8733 25.3982 20.6 25.3631C22.3267 25.3982 24.0444 25.1105 25.6505 24.5154L11.7469 21.3334ZM55.45 13.1471V12.3971H54.7H48.5H47.75V13.1471V20.9965H39.2H38.45V21.7465V27.4794V28.2294H39.2H47.75V36.0788V36.8288H48.5H54.7H55.45V36.0788V28.2294H64H64.75V27.4794V21.7465V20.9965H64H55.45V13.1471ZM26.051 13.1079L26.049 13.1471L26.051 13.1864C26.0851 13.8353 25.9719 14.4851 25.7173 15.0949C25.4625 15.7047 25.0708 16.2631 24.5635 16.7322C24.0561 17.2014 23.4446 17.5705 22.7668 17.8125C22.0889 18.0546 21.3621 18.1634 20.6336 18.1308L20.6 18.1293L20.5664 18.1308C19.8379 18.1634 19.1111 18.0546 18.4332 17.8125L18.181 18.5188L18.4332 17.8125C17.7554 17.5705 17.1439 17.2014 16.6365 16.7322C16.1292 16.2631 15.7375 15.7048 15.4827 15.0949C15.2281 14.4852 15.115 13.8354 15.149 13.1863L15.151 13.1471L15.149 13.108C15.115 12.4589 15.2281 11.8091 15.4827 11.1994C15.7374 10.5895 16.1292 10.0312 16.6365 9.56206C17.1439 9.09285 17.7554 8.72381 18.4332 8.48177L18.181 7.77546L18.4332 8.48177C19.1111 8.23971 19.8379 8.13088 20.5665 8.16345L20.6 8.16494L20.6335 8.16345C21.3621 8.13088 22.0889 8.23971 22.7668 8.48177L23.019 7.77546L22.7668 8.48177C23.4446 8.72381 24.0561 9.09285 24.5635 9.56206C25.0708 10.0312 25.4625 10.5895 25.7173 11.1994C25.9719 11.8091 26.0851 12.4589 26.051 13.1079ZM32.25 44.6782V45.4282H33H39.2H39.95V44.6782V41.8118C39.95 39.8226 39.5263 37.8545 38.7046 36.0204C37.883 34.1866 36.6807 32.5243 35.1692 31.1267C33.6579 29.7292 31.8669 28.6235 29.8998 27.87L29.8997 27.87C27.9328 27.1168 25.8262 26.7294 23.7 26.7294H17.5C13.2084 26.7294 9.08182 28.3053 6.03067 31.1267C2.97752 33.9499 1.25 37.7918 1.25 41.8118V44.6782V45.4282H2H8.2H8.95V44.6782V41.8118C8.95 39.7499 9.83533 37.7592 11.4331 36.2818C13.0328 34.8026 15.2143 33.9623 17.5 33.9623H23.7C25.9857 33.9623 28.1671 34.8026 29.7668 36.2818C31.3646 37.7592 32.25 39.7499 32.25 41.8118V44.6782Z" fill="white" stroke="white" stroke-width="1.5"/>
</svg>
