<svg width="392" height="50" viewBox="0 0 392 50" fill="none" xmlns="http://www.w3.org/2000/svg">
<path d="M45.0721 30.5275C45.8117 30.9191 46.5994 31.4422 47.1847 32.0414C47.4814 32.3452 47.7949 32.7793 47.8941 33.1981C47.9346 33.369 47.9236 33.558 47.9254 33.7332L47.9267 34.6042C47.9185 35.373 47.5455 35.9197 47.0167 36.439C46.4558 36.915 45.7757 37.1264 45.0842 37.335C45.0471 37.2646 45.0688 37.077 45.069 36.9925L45.0704 35.8562L45.0721 30.5275Z" fill="#DE8737"/>
<path d="M45.0901 16.7433C46.172 16.9664 47.0647 17.512 47.9194 18.1949C47.9501 18.3906 47.9313 18.6126 47.9317 18.8112L47.9335 19.9059L47.9256 24.012C47.56 23.8566 47.2347 23.6205 46.9026 23.4046L45.0747 22.2075L45.0901 16.7433Z" fill="#DE8737"/>
<path d="M6.20454 21.8634L7.58777 23.7714L8.00699 24.3494C8.04446 24.4018 8.12811 24.4881 8.14563 24.5437C8.17355 24.632 8.14543 24.8542 8.14536 24.955L8.14484 26.356L8.1503 32.5393C7.66022 32.3972 7.18377 32.1259 6.82509 31.7601C6.5183 31.4472 6.30774 31.0343 6.2235 30.6051C6.17114 30.3385 6.19775 30.0257 6.19716 29.753L6.19558 28.1275L6.20454 21.8634Z" fill="#DE8737"/>
<path d="M36.7564 37.1314L36.7655 41.5773L45.0303 41.5502L45.0274 40.9584C45.549 40.9084 46.0658 40.8693 46.5807 40.7653C47.0254 40.6756 47.4572 40.5312 47.8855 40.3838C47.8829 40.8141 47.8351 41.3273 47.9184 41.748C47.9781 42.0491 48.1167 42.3567 48.279 42.6151C48.8733 43.5611 49.9044 43.8936 50.9338 44.1204C50.5469 44.1819 50.1102 44.1492 49.7169 44.1496L47.4833 44.1493L32.0815 44.1552L36.7564 37.1314Z" fill="#DE8737"/>
<path d="M34.1879 6.0883L45.7949 6.09271L49.2493 6.09074C49.8847 6.09061 50.5763 6.03854 51.2045 6.13957C50.9306 6.20251 50.6503 6.22228 50.3778 6.28851C49.575 6.48371 48.8224 6.95762 48.3822 7.66732C48.1822 7.98965 48.0182 8.35573 47.9571 8.7321C47.8695 9.27059 47.9285 9.88638 47.9286 10.4361L47.9283 14.0963C47.0513 13.637 46.0675 13.2613 45.0786 13.1463L45.091 8.64109L37.138 8.66C37.0274 8.6608 36.8198 8.62541 36.7422 8.71049L36.7361 8.72294C36.7978 9.18116 36.753 9.70548 36.7536 10.1704L36.7395 12.7858L32.2896 6.09225L34.1879 6.0883Z" fill="#DE8737"/>
<path d="M11.5228 6.07599L21.0716 6.08904L16.5266 12.9557C16.4982 12.8277 16.5143 12.6796 16.5146 12.5486L16.5169 11.7327L16.5145 8.6871L9.90914 8.69218L8.04867 8.69514L8.05933 14.6663L5.40989 14.6698L5.39633 10.9033C5.39251 10.3308 5.44348 9.68704 5.36458 9.12502C5.30069 8.6705 5.1853 8.28147 4.95768 7.88118C4.52405 7.11843 3.74872 6.64822 2.93374 6.38724C2.61865 6.28635 2.29468 6.22704 1.97656 6.13827C2.20761 6.08383 2.51769 6.11256 2.75584 6.10881L4.74403 6.09477L11.5228 6.07599Z" fill="#DE8737"/>
<path d="M20.2438 44.1555C20.0015 44.1876 19.7398 44.1672 19.4944 44.1668L18.1029 44.1621L13.5114 44.1546L5.8389 44.1539L3.41181 44.154C2.89169 44.1538 2.36756 44.1689 1.84863 44.134C2.84118 43.9495 3.86039 43.7189 4.59838 42.9797C4.92565 42.6519 5.17165 42.2403 5.2842 41.7884C5.48607 40.9778 5.39643 40.0099 5.39637 39.1754L5.38688 35.6801L8.14908 35.6811L8.14684 41.6119L16.6079 41.6151L16.6066 37.299L20.4811 42.9645L21.2878 44.1549L20.2438 44.1555Z" fill="#DE8737"/>
<path d="M20.2439 44.1555C20.1422 44.1402 19.9752 44.1632 19.8872 44.1182L20.6918 44.1076L20.777 43.9707C20.8063 43.9251 20.847 43.8752 20.8635 43.8231C20.8869 43.7494 20.8815 43.6738 20.8425 43.6075L20.765 43.4839C20.7215 43.4061 20.6654 43.3453 20.6201 43.2703C20.5734 43.193 20.5097 43.1282 20.4751 43.0442L20.4635 43.0144L20.4216 42.985L20.4812 42.9645L21.2879 44.1549L20.2439 44.1555Z" fill="#DE8737"/>
<path fill-rule="evenodd" clip-rule="evenodd" d="M30.7222 17.108C29.7719 16.9857 28.8246 16.8638 27.8612 16.8833C26.7325 16.9197 25.5542 17.2516 24.7554 18.0987C24.1699 18.7196 23.9009 19.5479 23.9272 20.3952C23.9565 21.3383 24.3065 22.1115 24.7718 22.9155C24.7299 22.9362 24.6878 22.9568 24.6457 22.9775C23.0368 23.7681 21.338 24.6028 20.721 26.4234C20.3204 27.6055 20.3613 29.0322 20.9194 30.1558C21.4074 31.1386 22.4095 31.8079 23.4317 32.1414C24.0382 32.3393 24.6837 32.4282 25.3184 32.4653C27.0518 32.5666 28.8091 32.2203 30.3572 31.4256L31.8933 30.4614C34.0842 32.05 36.3212 32.4914 38.9602 32.0695L39.4315 31.99C38.6007 31.9294 37.7869 31.796 36.9979 31.5203C35.857 31.1217 34.854 30.45 33.9136 29.7054L33.1214 29.0515C33.1897 28.8708 33.3313 28.6818 33.4664 28.5017C33.5372 28.4072 33.6062 28.3152 33.6618 28.228C33.942 27.7892 34.1629 27.3304 34.347 26.8436C34.4477 26.5772 34.5387 26.2947 34.5971 26.0157L34.7574 25.0684C34.7616 25.0395 34.7656 25.0101 34.7696 24.9803C34.7955 24.7882 34.8234 24.5821 34.9314 24.4218C35.0585 24.2333 35.2473 24.123 35.4365 24.0123C35.4974 23.9767 35.5584 23.941 35.6174 23.9027C35.6944 23.8527 35.7693 23.7995 35.8441 23.7464C35.9538 23.6685 36.0635 23.5907 36.1798 23.5227L32.9537 23.4982C32.8282 23.4988 32.6996 23.4971 32.5696 23.4952C32.1946 23.49 31.808 23.4846 31.45 23.538C31.5851 23.5851 31.7189 23.6034 31.8539 23.6218C31.9418 23.6338 32.0301 23.6458 32.1196 23.666C32.6149 23.7773 33.0414 24.1401 33.2569 24.5955C33.595 25.3095 33.5309 26.2615 33.2621 26.9883C33.082 27.4752 32.8032 27.9653 32.4484 28.3451C32.0969 28.0418 31.767 27.6998 31.4396 27.3602C31.2975 27.2129 31.1559 27.0661 31.0132 26.9231L27.9226 23.6131C27.9042 23.5919 27.8857 23.5706 27.8672 23.5493C27.2679 22.8602 26.6524 22.1525 26.1714 21.3759C25.8988 20.9357 25.647 20.4108 25.6053 19.8886C25.5625 19.3517 25.6767 18.8339 26.0345 18.4205C26.4528 17.9373 26.9613 17.7627 27.5841 17.7272C28.3053 17.6862 29.1184 17.7968 29.6727 18.2978C30.2384 18.8091 30.4199 19.4931 30.5735 20.2092L30.6113 20.3862C30.612 20.3892 30.6119 20.3927 30.6119 20.3963C30.6118 20.4034 30.6117 20.4105 30.6172 20.4135C30.6701 20.4429 30.7644 20.4558 30.8564 20.4683C30.9225 20.4773 30.9874 20.4862 31.0349 20.5009C31.0348 20.3056 31.0305 20.1065 31.0262 19.9052C31.0066 18.9846 30.9859 18.0203 31.3586 17.1884C31.1462 17.1626 30.9341 17.1353 30.7222 17.108ZM27.3064 26.0737C26.5569 25.2691 25.8134 24.4487 25.1865 23.5432C24.1089 24.0992 23.1487 24.6469 22.7606 25.8743C22.4729 26.784 22.6117 27.9879 23.0517 28.8327C23.5369 29.7643 24.4531 30.4736 25.4478 30.7846C26.3784 31.0756 27.4233 31.103 28.3838 30.9571C29.1138 30.8335 29.7955 30.6611 30.4411 30.2825L30.4506 30.2769C30.6408 30.1653 30.8449 30.0456 30.9949 29.8827L31.0189 29.7994C30.8891 29.6405 30.7293 29.502 30.5717 29.3654C30.5134 29.3148 30.4553 29.2644 30.3992 29.2134L29.5824 28.4284L27.3064 26.0737Z" fill="#FFF8E0"/>
<path d="M48.2298 31.4723C48.0485 31.3472 47.8672 31.0963 47.6981 30.9405C47.3078 30.5807 46.887 30.26 46.4454 29.9657L43.2728 27.9606C41.1331 26.6576 38.6341 25.3388 37.445 23.0178C36.7716 21.7033 36.6279 20.2043 37.0946 18.7953C37.633 17.1697 38.9249 15.7996 40.4412 15.0344C42.1523 14.1707 44.1669 13.9013 46.0096 14.5149C46.4779 14.6256 46.9412 14.8055 47.3761 15.0116C48.1281 15.368 49.1064 16.0881 49.9504 15.5872C50.1105 15.4921 50.2181 15.3798 50.3359 15.2377C50.4177 15.1391 50.49 15.0144 50.6119 14.9646C50.6837 15.0425 50.717 15.0788 50.724 15.1871C50.7428 15.4825 50.7251 15.7909 50.7249 16.0874L50.7217 17.8409C50.7194 18.8043 50.7676 19.801 50.7107 20.7612L50.6871 20.9163C50.605 20.97 50.544 20.9555 50.4472 20.9565C50.3337 20.819 50.2839 20.6238 50.2227 20.4578L49.9277 19.6797C49.7076 19.1202 49.4563 18.5625 49.1126 18.0669C48.6232 17.3608 47.8354 16.6937 47.0785 16.2923C46.7355 16.1104 46.3693 15.9782 46.0093 15.8349C45.642 15.7418 45.2792 15.6231 44.9061 15.5551C44.2319 15.4323 43.5329 15.4362 42.859 15.5529C42.0589 15.6917 41.3175 16.1102 40.8553 16.7853C40.3853 17.4718 40.3361 18.4405 40.4967 19.2328C40.837 20.9113 42.6764 22.01 44.0073 22.8783L47.4158 25.1063L48.0557 25.5317C48.1467 25.5926 48.2864 25.6631 48.355 25.7441C50.2647 26.8978 52.2302 28.6934 52.8006 30.9213C53.2433 32.6505 52.9346 34.3947 52.0201 35.9119C50.8804 37.8026 48.8119 39.0517 46.7053 39.5641C45.9839 39.7396 45.2479 39.8752 44.5022 39.8711C42.0462 39.9425 39.7762 39.2419 37.7195 37.9161L37.7426 34.9382C38.04 35.3516 38.3447 35.7585 38.7067 36.1185C39.8238 37.2295 41.253 38.0233 42.8072 38.3086C43.414 38.4199 44.0147 38.4501 44.6301 38.4485C44.8734 38.4086 45.1186 38.3976 45.3614 38.3536C46.2112 38.1995 46.982 37.9261 47.6725 37.3933C48.6323 36.6526 49.1068 35.7056 49.2541 34.5124C49.3951 33.3699 48.907 32.3496 48.2298 31.4723Z" fill="#FFCF25"/>
<path d="M26.6419 0C26.7614 0.0969423 26.8534 0.263412 26.9415 0.390538L27.4933 1.20265L29.2541 3.85192L33.6476 10.534L35.3012 13.041L37.3082 16.1294C36.5453 16.9737 35.9555 18.1708 35.7035 19.2789C35.6221 19.6364 35.5935 20.0074 35.5279 20.3686L26.6285 6.85094L24.0659 10.7634L15.3775 23.9076L13.0337 20.4373L26.6419 0Z" fill="#FFEF9C"/>
<path d="M8.46356 22.9342C8.33836 22.8146 8.23752 22.6324 8.13972 22.4891L7.50882 21.5589L5.05295 17.9149L5.06441 27.0178L5.0708 29.2634C5.07284 29.7105 5.02562 30.229 5.1335 30.6615C5.338 31.4814 5.66376 32.1558 6.28444 32.747C7.5075 33.9122 9.12297 34.0582 10.7257 34.0217L10.7214 34.6011L0.00605901 34.5992L0 34.0665C1.06769 34.0705 1.98067 33.9956 2.89082 33.3798C3.61458 32.89 4.13865 32.1213 4.30173 31.2583C4.36186 30.94 4.40447 30.6137 4.41402 30.2898L4.41863 27.3226L4.42311 21.6101L4.42528 19.3737C4.42541 19.2366 4.46566 18.9006 4.42588 18.7881C4.37108 18.6333 4.2053 18.4303 4.11053 18.2913C3.46528 17.3449 2.4697 16.5832 1.32745 16.3753L1.26449 16.3643C0.862663 16.2912 0.456293 16.2922 0.0491987 16.2854C0.00381961 16.2221 0.0322067 15.8799 0.0327995 15.7858L8.3622 15.8051C8.46191 15.8894 8.53561 16.0319 8.60865 16.1416L9.07298 16.8324L11.3575 20.1998L20.5729 33.8017L26.6661 42.9232L32.472 34.1015L36.6652 34.1123L36.6661 34.7353C36.6662 34.7712 36.6786 34.8792 36.6664 34.9097C36.5944 35.0901 36.387 35.3197 36.2742 35.485L35.2468 37.0138L30.1522 44.6497L28.4987 47.1497L27.0908 49.3427C26.9695 49.5277 26.825 49.825 26.6687 49.9748L26.6349 50L17.214 35.8615C17.1117 35.789 17.018 35.6088 16.9464 35.5052L16.2489 34.4668L14.9931 32.6129L10.5847 26.061L9.09222 23.8672C8.886 23.5622 8.63171 23.2606 8.46356 22.9342Z" fill="#FFCF25"/>
<path d="M95.0631 18V33H92.5431V18.8L93.3631 18.84L86.3831 33H83.5631L76.5831 18.86L77.4031 18.82V33H74.8831V18H78.9231L85.6431 31.86H84.3231L91.0231 18H95.0631ZM106.218 33.28C104.512 33.28 103.012 32.9533 101.718 32.3C100.425 31.6467 99.4183 30.74 98.6983 29.58C97.9783 28.4067 97.6183 27.0467 97.6183 25.5C97.6183 23.9533 97.9783 22.6 98.6983 21.44C99.4183 20.2667 100.425 19.3533 101.718 18.7C103.012 18.0467 104.512 17.72 106.218 17.72C107.925 17.72 109.425 18.0467 110.718 18.7C112.012 19.3533 113.018 20.2667 113.738 21.44C114.458 22.6 114.818 23.9533 114.818 25.5C114.818 27.0467 114.458 28.4067 113.738 29.58C113.018 30.74 112.012 31.6467 110.718 32.3C109.425 32.9533 107.925 33.28 106.218 33.28ZM106.218 30.92C107.432 30.92 108.478 30.7 109.358 30.26C110.238 29.82 110.918 29.1933 111.398 28.38C111.892 27.5667 112.138 26.6067 112.138 25.5C112.138 24.3933 111.892 23.4333 111.398 22.62C110.918 21.8067 110.238 21.18 109.358 20.74C108.478 20.3 107.432 20.08 106.218 20.08C105.018 20.08 103.972 20.3 103.078 20.74C102.198 21.18 101.512 21.8067 101.018 22.62C100.538 23.4333 100.298 24.3933 100.298 25.5C100.298 26.6067 100.538 27.5667 101.018 28.38C101.512 29.1933 102.198 29.82 103.078 30.26C103.972 30.7 105.018 30.92 106.218 30.92ZM119.223 24.76H125.323C126.203 24.76 126.896 24.56 127.403 24.16C127.923 23.76 128.183 23.2133 128.183 22.52C128.183 21.8133 127.923 21.2667 127.403 20.88C126.896 20.48 126.203 20.28 125.323 20.28H118.843L120.023 18.8V33H117.383V18H125.563C126.616 18 127.536 18.1933 128.323 18.58C129.123 18.9533 129.743 19.48 130.183 20.16C130.636 20.8267 130.863 21.6133 130.863 22.52C130.863 23.4 130.636 24.18 130.183 24.86C129.743 25.5267 129.123 26.0533 128.323 26.44C127.536 26.8133 126.616 27 125.563 27H119.223V24.76ZM122.183 25.98H125.283L131.243 33H128.083L122.183 25.98ZM148.497 26.48C148.484 27.4133 148.304 28.2933 147.957 29.12C147.61 29.9333 147.117 30.6533 146.477 31.28C145.837 31.9067 145.057 32.4 144.137 32.76C143.23 33.1067 142.19 33.28 141.017 33.28C139.83 33.28 138.73 33.1 137.717 32.74C136.704 32.38 135.817 31.8667 135.057 31.2C134.31 30.52 133.73 29.7 133.317 28.74C132.904 27.78 132.697 26.7 132.697 25.5C132.697 24.3 132.904 23.22 133.317 22.26C133.744 21.3 134.337 20.4867 135.097 19.82C135.857 19.14 136.75 18.62 137.777 18.26C138.804 17.9 139.93 17.72 141.157 17.72C142.69 17.72 144.03 17.9733 145.177 18.48C146.337 18.9733 147.27 19.6533 147.977 20.52C148.684 21.3867 149.117 22.38 149.277 23.5H146.597C146.45 22.7933 146.13 22.18 145.637 21.66C145.157 21.14 144.537 20.74 143.777 20.46C143.017 20.18 142.137 20.04 141.137 20.04C139.964 20.04 138.944 20.26 138.077 20.7C137.224 21.1267 136.557 21.7467 136.077 22.56C135.61 23.3733 135.377 24.3533 135.377 25.5C135.377 26.6467 135.617 27.6333 136.097 28.46C136.59 29.2867 137.284 29.92 138.177 30.36C139.07 30.8 140.124 31.02 141.337 31.02C142.51 31.02 143.537 30.82 144.417 30.42C145.297 30.02 145.99 29.4667 146.497 28.76C147.004 28.04 147.277 27.2067 147.317 26.26L148.497 26.48ZM141.857 27.62V25.62H149.437V33H147.477L147.157 26.78L147.777 27.62H141.857ZM154.129 29.56V27.38H164.609V29.56H154.129ZM161.089 18L168.289 33H165.469L158.929 19H159.949L153.409 33H150.589L157.789 18H161.089ZM184.018 31.4L182.938 31.52V18H185.498V33H182.138L171.618 19.48L172.678 19.36V33H170.118V18H173.558L184.018 31.4ZM187.928 28.12H190.608C190.688 28.72 190.935 29.2467 191.348 29.7C191.775 30.1533 192.335 30.5067 193.028 30.76C193.721 31 194.521 31.12 195.428 31.12C196.775 31.12 197.841 30.9133 198.628 30.5C199.415 30.0733 199.808 29.5 199.808 28.78C199.808 28.1933 199.581 27.7533 199.128 27.46C198.675 27.1667 197.855 26.9467 196.668 26.8L193.428 26.38C191.615 26.14 190.295 25.6933 189.468 25.04C188.655 24.3733 188.248 23.4333 188.248 22.22C188.248 21.3 188.521 20.5067 189.068 19.84C189.628 19.16 190.415 18.64 191.428 18.28C192.441 17.9067 193.628 17.72 194.988 17.72C196.335 17.72 197.528 17.92 198.568 18.32C199.608 18.72 200.435 19.28 201.048 20C201.675 20.7067 202.015 21.54 202.068 22.5H199.388C199.321 21.9667 199.095 21.5067 198.708 21.12C198.335 20.7333 197.828 20.4333 197.188 20.22C196.548 19.9933 195.795 19.88 194.928 19.88C193.701 19.88 192.721 20.08 191.988 20.48C191.255 20.88 190.888 21.4267 190.888 22.12C190.888 22.6533 191.101 23.0667 191.528 23.36C191.968 23.64 192.728 23.8533 193.808 24L197.088 24.46C198.435 24.6467 199.495 24.9 200.268 25.22C201.055 25.5267 201.615 25.9467 201.948 26.48C202.281 27 202.448 27.6733 202.448 28.5C202.448 29.46 202.155 30.3 201.568 31.02C200.981 31.74 200.155 32.3 199.088 32.7C198.035 33.0867 196.801 33.28 195.388 33.28C193.948 33.28 192.675 33.0667 191.568 32.64C190.475 32.2 189.608 31.5933 188.968 30.82C188.328 30.0467 187.981 29.1467 187.928 28.12ZM222.356 22.04H219.756C219.662 21.3333 219.349 20.76 218.816 20.32C218.296 19.88 217.562 19.66 216.616 19.66C216.069 19.66 215.589 19.7333 215.176 19.88C214.762 20.0267 214.436 20.2467 214.196 20.54C213.969 20.82 213.856 21.1667 213.856 21.58C213.856 21.8733 213.949 22.1933 214.136 22.54C214.336 22.8867 214.676 23.26 215.156 23.66L226.196 33H222.816L213.136 24.84C212.456 24.2533 211.942 23.6867 211.596 23.14C211.262 22.5933 211.096 22.0267 211.096 21.44C211.096 20.6933 211.316 20.0467 211.756 19.5C212.196 18.94 212.822 18.5067 213.636 18.2C214.462 17.88 215.436 17.72 216.556 17.72C217.742 17.72 218.756 17.9067 219.596 18.28C220.449 18.6533 221.109 19.1667 221.576 19.82C222.042 20.46 222.302 21.2 222.356 22.04ZM222.496 25.06H225.276L221.296 29.98C220.709 30.7133 220.096 31.3267 219.456 31.82C218.829 32.3 218.142 32.6667 217.396 32.92C216.649 33.16 215.802 33.28 214.856 33.28C213.682 33.28 212.676 33.0867 211.836 32.7C211.009 32.3 210.369 31.7733 209.916 31.12C209.476 30.4667 209.256 29.74 209.256 28.94C209.256 28.18 209.449 27.5 209.836 26.9C210.222 26.2867 210.809 25.7667 211.596 25.34C212.396 24.9133 213.402 24.6133 214.616 24.44L215.276 25.5C214.182 25.7533 213.342 26.1533 212.756 26.7C212.169 27.2467 211.876 27.8867 211.876 28.62C211.876 29.0867 212.002 29.52 212.256 29.92C212.522 30.32 212.896 30.64 213.376 30.88C213.869 31.12 214.456 31.24 215.136 31.24C216.189 31.24 217.076 31.0267 217.796 30.6C218.516 30.1733 219.149 29.5933 219.696 28.86L222.496 25.06ZM231.268 28.12H233.948C234.028 28.72 234.274 29.2467 234.688 29.7C235.114 30.1533 235.674 30.5067 236.368 30.76C237.061 31 237.861 31.12 238.768 31.12C240.114 31.12 241.181 30.9133 241.968 30.5C242.754 30.0733 243.148 29.5 243.148 28.78C243.148 28.1933 242.921 27.7533 242.468 27.46C242.014 27.1667 241.194 26.9467 240.008 26.8L236.768 26.38C234.954 26.14 233.634 25.6933 232.808 25.04C231.994 24.3733 231.588 23.4333 231.588 22.22C231.588 21.3 231.861 20.5067 232.408 19.84C232.968 19.16 233.754 18.64 234.768 18.28C235.781 17.9067 236.968 17.72 238.328 17.72C239.674 17.72 240.868 17.92 241.908 18.32C242.948 18.72 243.774 19.28 244.388 20C245.014 20.7067 245.354 21.54 245.408 22.5H242.728C242.661 21.9667 242.434 21.5067 242.048 21.12C241.674 20.7333 241.168 20.4333 240.528 20.22C239.888 19.9933 239.134 19.88 238.268 19.88C237.041 19.88 236.061 20.08 235.328 20.48C234.594 20.88 234.228 21.4267 234.228 22.12C234.228 22.6533 234.441 23.0667 234.868 23.36C235.308 23.64 236.068 23.8533 237.148 24L240.428 24.46C241.774 24.6467 242.834 24.9 243.608 25.22C244.394 25.5267 244.954 25.9467 245.288 26.48C245.621 27 245.788 27.6733 245.788 28.5C245.788 29.46 245.494 30.3 244.908 31.02C244.321 31.74 243.494 32.3 242.428 32.7C241.374 33.0867 240.141 33.28 238.728 33.28C237.288 33.28 236.014 33.0667 234.908 32.64C233.814 32.2 232.948 31.5933 232.308 30.82C231.668 30.0467 231.321 29.1467 231.268 28.12ZM252.477 19.22H255.117V33H252.477V19.22ZM246.277 18H261.317V20.32H246.277V18ZM262.703 29.56V27.38H273.183V29.56H262.703ZM269.663 18L276.863 33H274.043L267.503 19H268.523L261.983 33H259.163L266.363 18H269.663ZM292.592 31.4L291.512 31.52V18H294.072V33H290.712L280.192 19.48L281.252 19.36V33H278.692V18H282.132L292.592 31.4ZM296.502 28.12H299.182C299.262 28.72 299.509 29.2467 299.922 29.7C300.349 30.1533 300.909 30.5067 301.602 30.76C302.296 31 303.096 31.12 304.002 31.12C305.349 31.12 306.416 30.9133 307.202 30.5C307.989 30.0733 308.382 29.5 308.382 28.78C308.382 28.1933 308.156 27.7533 307.702 27.46C307.249 27.1667 306.429 26.9467 305.242 26.8L302.002 26.38C300.189 26.14 298.869 25.6933 298.042 25.04C297.229 24.3733 296.822 23.4333 296.822 22.22C296.822 21.3 297.096 20.5067 297.642 19.84C298.202 19.16 298.989 18.64 300.002 18.28C301.016 17.9067 302.202 17.72 303.562 17.72C304.909 17.72 306.102 17.92 307.142 18.32C308.182 18.72 309.009 19.28 309.622 20C310.249 20.7067 310.589 21.54 310.642 22.5H307.962C307.896 21.9667 307.669 21.5067 307.282 21.12C306.909 20.7333 306.402 20.4333 305.762 20.22C305.122 19.9933 304.369 19.88 303.502 19.88C302.276 19.88 301.296 20.08 300.562 20.48C299.829 20.88 299.462 21.4267 299.462 22.12C299.462 22.6533 299.676 23.0667 300.102 23.36C300.542 23.64 301.302 23.8533 302.382 24L305.662 24.46C307.009 24.6467 308.069 24.9 308.842 25.22C309.629 25.5267 310.189 25.9467 310.522 26.48C310.856 27 311.022 27.6733 311.022 28.5C311.022 29.46 310.729 30.3 310.142 31.02C309.556 31.74 308.729 32.3 307.662 32.7C306.609 33.0867 305.376 33.28 303.962 33.28C302.522 33.28 301.249 33.0667 300.142 32.64C299.049 32.2 298.182 31.5933 297.542 30.82C296.902 30.0467 296.556 29.1467 296.502 28.12Z" fill="#FFCF25"/>
</svg>
