<svg width="29" height="35" viewBox="0 0 29 35" fill="none" xmlns="http://www.w3.org/2000/svg">
<path d="M23.4151 18.3398C23.4321 16.9759 23.7825 15.6386 24.4337 14.4524C25.0849 13.2661 26.0157 12.2695 27.1395 11.5551C26.4256 10.5009 25.4837 9.63326 24.3887 9.02122C23.2938 8.40918 22.0759 8.06955 20.8317 8.0293C18.1778 7.74128 15.6049 9.67126 14.2525 9.67126C12.8739 9.67126 10.7917 8.0579 8.54947 8.1056C7.09914 8.15405 5.68568 8.5901 4.4468 9.37128C3.20793 10.1525 2.18589 11.2521 1.48028 12.5631C-1.5763 18.0346 0.703629 26.0759 3.63157 30.4987C5.09649 32.6644 6.80855 35.0836 9.04875 34.9978C11.2409 34.9038 12.0597 33.5525 14.7058 33.5525C17.3274 33.5525 18.0955 34.9978 20.3812 34.9432C22.7335 34.9038 24.2155 32.7679 25.629 30.5817C26.6816 29.0385 27.4915 27.333 28.0288 25.5283C26.6622 24.9307 25.4959 23.9304 24.6755 22.6521C23.8551 21.3737 23.4167 19.874 23.4151 18.3398Z" fill="black"/>
<path d="M19.2229 5.56139C20.5213 4.00925 21.1609 2.01422 21.006 0C19.0224 0.207472 17.1902 1.15156 15.8743 2.64416C15.2309 3.37333 14.7381 4.22162 14.4242 5.14056C14.1102 6.05949 13.9812 7.03103 14.0445 7.99965C15.0366 8.00983 16.0182 7.79567 16.9152 7.37333C17.8121 6.95098 18.6012 6.33145 19.2229 5.56139Z" fill="black"/>
</svg>
