<svg width="115" height="25" viewBox="0 0 115 25" fill="none" xmlns="http://www.w3.org/2000/svg">
<path d="M21.5341 19.8082L19.7041 20.1382V1.17822H25.1941V23.6782H18.0541L4.34414 4.71822L6.17414 4.38822V23.6782H0.684141V1.17822H8.03414L21.5341 19.8082ZM48.5009 10.3282V14.5282H32.2109V10.3282H48.5009ZM36.0509 12.4282L34.5509 21.7282L32.1809 19.0282H49.4609V23.6782H28.8809L30.6209 12.4282L28.8809 1.17822H49.3109V5.82822H32.1809L34.5509 3.12822L36.0509 12.4282ZM80.9084 21.3082L79.0784 21.3382L84.9884 1.17822H90.9584L83.9084 23.6782H76.6784L69.8684 4.11822H72.2384L65.4584 23.6782H58.1984L51.1484 1.17822H57.1484L63.0584 21.3082L61.2584 21.2782L68.0684 1.17822H74.0684L80.9084 21.3082ZM91.6256 16.3282H97.3556C97.4556 17.0082 97.7656 17.6082 98.2856 18.1282C98.8056 18.6482 99.4956 19.0482 100.356 19.3282C101.236 19.6082 102.256 19.7482 103.416 19.7482C105.076 19.7482 106.376 19.5182 107.316 19.0582C108.276 18.5982 108.756 17.9482 108.756 17.1082C108.756 16.4682 108.476 15.9782 107.916 15.6382C107.376 15.2782 106.356 15.0182 104.856 14.8582L100.506 14.4082C97.4856 14.1082 95.2956 13.4082 93.9356 12.3082C92.5956 11.2082 91.9256 9.70822 91.9256 7.80822C91.9256 6.30822 92.3656 5.02822 93.2456 3.96822C94.1456 2.90822 95.3956 2.09822 96.9956 1.53822C98.6156 0.978222 100.506 0.698222 102.666 0.698222C104.806 0.698222 106.696 1.00822 108.336 1.62822C109.976 2.24822 111.286 3.10822 112.266 4.20822C113.246 5.30822 113.776 6.59822 113.856 8.07822H108.126C108.046 7.45822 107.766 6.93822 107.286 6.51822C106.826 6.07822 106.196 5.73822 105.396 5.49822C104.616 5.23822 103.676 5.10822 102.576 5.10822C101.056 5.10822 99.8456 5.32822 98.9456 5.76822C98.0656 6.18822 97.6256 6.79822 97.6256 7.59822C97.6256 8.19822 97.8856 8.66822 98.4056 9.00822C98.9456 9.34822 99.8956 9.59822 101.256 9.75822L105.846 10.2682C107.946 10.4882 109.626 10.8382 110.886 11.3182C112.146 11.7982 113.056 12.4582 113.616 13.2982C114.176 14.1382 114.456 15.1982 114.456 16.4782C114.456 18.0182 113.986 19.3682 113.046 20.5282C112.126 21.6682 110.826 22.5582 109.146 23.1982C107.486 23.8382 105.546 24.1582 103.326 24.1582C101.026 24.1582 99.0056 23.8282 97.2656 23.1682C95.5456 22.5082 94.1856 21.5982 93.1856 20.4382C92.2056 19.2582 91.6856 17.8882 91.6256 16.3282Z" fill="white"/>
</svg>
