<svg width="36" height="39" viewBox="0 0 36 39" fill="none" xmlns="http://www.w3.org/2000/svg">
<path d="M7.95459 5.91605L7.95461 5.91601C7.54923 5.67752 7.04996 5.67431 6.62854 5.83572L16.6802 15.8597C16.6803 15.8597 16.6803 15.8598 16.6804 15.8598C17.0252 16.2033 17.5854 16.2034 17.9302 15.8599L7.95459 5.91605ZM7.95459 5.91605L7.96108 5.91977L17.8514 11.5863L17.8515 11.5863L20.6226 13.1736M7.95459 5.91605L20.6226 13.1736M20.6226 13.1736L17.9305 15.8597L20.6226 13.1736ZM13.6018 20.1765L13.6017 20.1765L13.5978 20.1804L5.87223 28.0137L5.88188 11.2326L13.6012 18.934C13.9459 19.2784 13.9451 19.8342 13.6018 20.1765ZM17.9305 23.2514L20.5741 25.8892L7.91787 33.1052L7.91786 33.1052L7.91386 33.1075C7.69531 33.2342 7.44004 33.3032 7.1759 33.3032C7.00734 33.3032 6.84388 33.2714 6.69046 33.2138L16.6802 23.2514C17.025 22.9077 17.5853 22.9076 17.9302 23.2511C17.9303 23.2512 17.9304 23.2513 17.9305 23.2514ZM29.3896 20.7668L29.3778 20.7731L29.3663 20.7799L24.4896 23.6476L21.0091 20.1766L21.0089 20.1765C20.6657 19.8344 20.6648 19.2789 21.0091 18.9344L21.0095 18.934L24.5333 15.42L29.3846 18.2606L29.3946 18.2665L29.4048 18.272L29.4382 18.2899C29.4384 18.2901 29.4387 18.2902 29.439 18.2904C29.9013 18.5408 30.1799 19.0111 30.1799 19.515C30.1799 20.0151 29.9043 20.492 29.3896 20.7668ZM1.38099 31.9557L1.38099 31.9668L1.38137 31.9778C1.4006 32.5419 1.54809 33.2727 1.57805 33.3878L1.57803 33.3879L1.57945 33.3932C2.25558 35.9053 4.55971 37.65 7.1759 37.65C8.20592 37.65 9.21868 37.3789 10.0935 36.8714C10.0942 36.8709 10.0949 36.8705 10.0956 36.8701L31.631 24.5916C33.5079 23.586 34.6788 21.6483 34.6788 19.5292C34.6788 17.432 33.5284 15.5061 31.6797 14.4969L10.1503 2.16135C9.25064 1.63099 8.22148 1.35 7.1759 1.35C4.50089 1.35 2.12155 3.15951 1.56158 5.67189C1.50422 5.90153 1.36758 6.50548 1.37956 7.10527L1.38099 31.9557Z" fill="black" stroke="black" stroke-width="1.3"/>
</svg>
