<svg width="2320" height="2249" viewBox="0 0 2320 2249" fill="none" xmlns="http://www.w3.org/2000/svg">
<g filter="url(#filter0_f_8048_418)">
<path d="M1219.72 1363H1695.72C1708.98 1363 1719.72 1373.75 1719.72 1387V1649H1219.72V1363Z" fill="#FFCF25"/>
</g>
<g filter="url(#filter1_f_8048_418)">
<path d="M961.721 1147H685.721C672.466 1147 661.721 1136.25 661.721 1123V802H961.721V1147Z" fill="#DE8737"/>
</g>
<g filter="url(#filter2_f_8048_418)">
<path d="M1201 500H1677C1690.25 500 1701 510.745 1701 524V786H1201V500Z" fill="#DE8737"/>
</g>
<g filter="url(#filter3_f_8048_418)">
<path d="M800 1600H524C510.745 1600 500 1589.25 500 1576L500 1255H800V1600Z" fill="#DE8737"/>
</g>
<defs>
<filter id="filter0_f_8048_418" x="619.721" y="763" width="1700" height="1486" filterUnits="userSpaceOnUse" color-interpolation-filters="sRGB">
<feFlood flood-opacity="0" result="BackgroundImageFix"/>
<feBlend mode="normal" in="SourceGraphic" in2="BackgroundImageFix" result="shape"/>
<feGaussianBlur stdDeviation="300" result="effect1_foregroundBlur_8048_418"/>
</filter>
<filter id="filter1_f_8048_418" x="161.721" y="302" width="1300" height="1345" filterUnits="userSpaceOnUse" color-interpolation-filters="sRGB">
<feFlood flood-opacity="0" result="BackgroundImageFix"/>
<feBlend mode="normal" in="SourceGraphic" in2="BackgroundImageFix" result="shape"/>
<feGaussianBlur stdDeviation="250" result="effect1_foregroundBlur_8048_418"/>
</filter>
<filter id="filter2_f_8048_418" x="701" y="0" width="1500" height="1286" filterUnits="userSpaceOnUse" color-interpolation-filters="sRGB">
<feFlood flood-opacity="0" result="BackgroundImageFix"/>
<feBlend mode="normal" in="SourceGraphic" in2="BackgroundImageFix" result="shape"/>
<feGaussianBlur stdDeviation="250" result="effect1_foregroundBlur_8048_418"/>
</filter>
<filter id="filter3_f_8048_418" x="0" y="755" width="1300" height="1345" filterUnits="userSpaceOnUse" color-interpolation-filters="sRGB">
<feFlood flood-opacity="0" result="BackgroundImageFix"/>
<feBlend mode="normal" in="SourceGraphic" in2="BackgroundImageFix" result="shape"/>
<feGaussianBlur stdDeviation="250" result="effect1_foregroundBlur_8048_418"/>
</filter>
</defs>
</svg>
