<svg width="16" height="18" viewBox="0 0 16 18" fill="none" xmlns="http://www.w3.org/2000/svg">
<path d="M2.16673 14.8321C2.16673 15.0531 2.25453 15.2651 2.41081 15.4214C2.56709 15.5776 2.77905 15.6654 3.00006 15.6654H13.0001C13.2211 15.6654 13.433 15.5776 13.5893 15.4214C13.7456 15.2651 13.8334 15.0531 13.8334 14.8321C13.8334 14.6571 13.7751 14.4904 13.6834 14.3571L8.83339 5.9571V2.3321H7.16673V5.9571L2.31673 14.3571C2.22506 14.4904 2.16673 14.6571 2.16673 14.8321ZM3.00006 17.3321C2.33702 17.3321 1.70114 17.0687 1.23229 16.5999C0.763453 16.131 0.500061 15.4951 0.500061 14.8321C0.500061 14.3321 0.650061 13.8654 0.916728 13.4738L5.50006 5.5071V3.99877C5.27905 3.99877 5.06709 3.91097 4.91081 3.75469C4.75453 3.59841 4.66673 3.38645 4.66673 3.16544V2.3321C4.66673 1.89007 4.84232 1.46615 5.15488 1.15359C5.46744 0.84103 5.89137 0.665436 6.33339 0.665436H9.66673C10.1088 0.665436 10.5327 0.84103 10.8452 1.15359C11.1578 1.46615 11.3334 1.89007 11.3334 2.3321V3.16544C11.3334 3.38645 11.2456 3.59841 11.0893 3.75469C10.933 3.91097 10.7211 3.99877 10.5001 3.99877V5.5071L15.0834 13.4738C15.3501 13.8654 15.5001 14.3321 15.5001 14.8321C15.5001 15.4951 15.2367 16.131 14.7678 16.5999C14.299 17.0687 13.6631 17.3321 13.0001 17.3321H3.00006ZM8.83339 12.3321L9.95006 11.2154L11.5584 13.9988H4.44173L6.65839 10.1571L8.83339 12.3321ZM8.41673 8.99877C8.52723 8.99877 8.63322 9.04267 8.71136 9.12081C8.7895 9.19895 8.83339 9.30493 8.83339 9.41544C8.83339 9.52594 8.7895 9.63192 8.71136 9.71006C8.63322 9.7882 8.52723 9.8321 8.41673 9.8321C8.30622 9.8321 8.20024 9.7882 8.1221 9.71006C8.04396 9.63192 8.00006 9.52594 8.00006 9.41544C8.00006 9.30493 8.04396 9.19895 8.1221 9.12081C8.20024 9.04267 8.30622 8.99877 8.41673 8.99877Z" fill="black"/>
</svg>
