<svg width="18" height="16" viewBox="0 0 18 16" fill="none" xmlns="http://www.w3.org/2000/svg">
<path d="M13.9999 10.4989H12.3332V12.1656H13.9999V10.4989ZM13.9999 7.16555H12.3332V8.83222H13.9999V7.16555ZM15.6666 13.8322H8.9999V12.1656H10.6666V10.4989H8.9999V8.83222H10.6666V7.16555H8.9999V5.49889H15.6666V13.8322ZM7.33323 3.83222H5.66656V2.16555H7.33323V3.83222ZM7.33323 7.16555H5.66656V5.49889H7.33323V7.16555ZM7.33323 10.4989H5.66656V8.83222H7.33323V10.4989ZM7.33323 13.8322H5.66656V12.1656H7.33323V13.8322ZM3.9999 3.83222H2.33323V2.16555H3.9999V3.83222ZM3.9999 7.16555H2.33323V5.49889H3.9999V7.16555ZM3.9999 10.4989H2.33323V8.83222H3.9999V10.4989ZM3.9999 13.8322H2.33323V12.1656H3.9999V13.8322ZM8.9999 3.83222V0.498886H0.666565V15.4989H17.3332V3.83222H8.9999Z" fill="black"/>
</svg>
