<svg width="349" height="349" viewBox="0 0 349 349" fill="none" xmlns="http://www.w3.org/2000/svg">
<path d="M170.25 323.912C172.378 323.912 174.25 324.304 175.866 325.088C177.466 325.872 178.714 326.968 179.61 328.376C180.49 329.784 180.93 331.424 180.93 333.296C180.93 335.168 180.49 336.808 179.61 338.216C178.714 339.624 177.466 340.72 175.866 341.504C174.25 342.288 172.378 342.68 170.25 342.68C168.106 342.68 166.234 342.288 164.634 341.504C163.034 340.72 161.786 339.624 160.89 338.216C159.994 336.808 159.546 335.168 159.546 333.296C159.546 331.424 159.994 329.784 160.89 328.376C161.786 326.968 163.034 325.872 164.634 325.088C166.234 324.304 168.106 323.912 170.25 323.912ZM170.25 328.352C169.082 328.352 168.074 328.552 167.226 328.952C166.378 329.352 165.73 329.92 165.282 330.656C164.818 331.392 164.586 332.272 164.586 333.296C164.586 334.32 164.818 335.2 165.282 335.936C165.73 336.672 166.378 337.24 167.226 337.64C168.074 338.04 169.082 338.24 170.25 338.24C171.402 338.24 172.402 338.04 173.25 337.64C174.098 337.24 174.754 336.672 175.218 335.936C175.682 335.2 175.914 334.32 175.914 333.296C175.914 332.272 175.682 331.392 175.218 330.656C174.754 329.92 174.098 329.352 173.25 328.952C172.402 328.552 171.402 328.352 170.25 328.352Z" fill="#FFCF25"/>
<path d="M155.768 334.955L147.884 333.987C146.375 333.802 145.165 333.419 144.252 332.84C143.34 332.26 142.697 331.52 142.324 330.62C141.949 329.736 141.829 328.738 141.966 327.626C142.102 326.514 142.484 325.57 143.111 324.793C143.736 324.031 144.57 323.481 145.611 323.141C146.65 322.817 147.86 322.74 149.242 322.91L160.866 324.337L158.349 333.434L158.676 342.203L141.834 340.135L142.293 336.395L156.062 338.086L153.902 340.118L153.644 332.953L155.843 325.074L157.448 327.569L149.444 326.586C148.729 326.498 148.143 326.611 147.685 326.926C147.212 327.239 146.936 327.713 146.858 328.348C146.778 328.999 146.932 329.525 147.317 329.928C147.686 330.343 148.227 330.595 148.942 330.683L156.183 331.572L155.768 334.955Z" fill="#FFCF25"/>
<path d="M137.394 320.47L132.888 325.16L132.818 325.142L123.009 335.435L117.769 334.128L132.154 319.164L137.394 320.47ZM133.734 322.056L138.704 339.348L133.371 338.019L129.505 324.44L133.734 322.056Z" fill="#FFCF25"/>
<path d="M113.965 318.452C116.355 319.369 117.947 320.692 118.741 322.419C119.515 324.156 119.45 326.204 118.545 328.565L116.835 333.025L112.197 331.244L113.761 327.166C114.213 325.985 114.233 324.973 113.819 324.129C113.406 323.285 112.557 322.616 111.273 322.123C110.526 321.836 109.71 321.617 108.826 321.466C107.935 321.33 107.016 321.269 106.069 321.282L107.226 317.459C108.294 317.355 109.404 317.387 110.556 317.555C111.708 317.723 112.845 318.022 113.965 318.452ZM110.574 311.34L104.131 328.148L99.4707 326.359L105.913 309.551L110.574 311.34Z" fill="#FFCF25"/>
<path d="M101.395 311.261L99.4536 314.768L88.6013 308.752L90.5423 305.246L101.395 311.261ZM85.9758 319.344L87.535 299.627L92.174 302.199L90.4831 319.427L89.2236 318.729L102.942 308.168L107.581 310.739L91.7063 322.52L85.9758 319.344Z" fill="#FFCF25"/>
<path d="M75.214 309.446L71.1754 306.511L80.4631 293.71L84.5017 296.644L75.214 309.446ZM79.4846 315.248L64.3398 304.245L66.933 300.67L82.0778 311.674L79.4846 315.248Z" fill="#FFCF25"/>
<path d="M73.8748 288.218L61.6082 301.391L57.9749 298.003L69.0966 286.059L69.2079 289.215L64.0826 284.436C63.4858 283.879 62.8818 283.6 62.2707 283.599C61.6478 283.587 61.0965 283.839 60.6168 284.354C60.1261 284.881 59.9141 285.449 59.9809 286.058C60.036 286.656 60.3619 287.234 60.9587 287.79L66.3999 292.864L63.7176 295.745L58.0482 290.458C56.9365 289.421 56.1628 288.339 55.7269 287.211C55.2684 286.083 55.1447 284.983 55.3558 283.911C55.5553 282.828 56.0803 281.83 56.9307 280.917C57.7812 280.003 58.7446 279.403 59.8209 279.116C60.8745 278.83 61.9795 278.876 63.1359 279.254C64.2805 279.621 65.4086 280.323 66.5203 281.36L73.8748 288.218Z" fill="#FFCF25"/>
<path d="M41.9095 265.256C43.2354 264.372 44.6508 263.893 46.1557 263.819C47.6484 263.756 49.1241 264.084 50.5828 264.802C52.0312 265.507 53.3724 266.595 54.6066 268.066C55.9539 269.672 56.8314 271.327 57.239 273.033C57.6467 274.738 57.5944 276.381 57.0821 277.961C56.5595 279.529 55.5816 280.915 54.1484 282.119C52.7152 283.323 51.182 284.047 49.5487 284.291C47.9051 284.523 46.2792 284.291 44.6711 283.594C43.063 282.897 41.5853 281.746 40.238 280.14C39.0038 278.669 38.1648 277.159 37.7208 275.609C37.2666 274.048 37.2057 272.531 37.5382 271.061C37.8584 269.6 38.5683 268.293 39.6679 267.139L42.8767 270.964C42.3916 271.58 42.096 272.236 41.99 272.931C41.8718 273.637 41.9441 274.37 42.207 275.131C42.4596 275.88 42.8996 276.629 43.527 277.376C44.2469 278.234 45.0283 278.842 45.8713 279.2C46.7021 279.567 47.5503 279.67 48.416 279.507C49.2694 279.354 50.1003 278.938 50.9088 278.258C51.7172 277.579 52.2766 276.827 52.5869 276.002C52.8849 275.187 52.9309 274.333 52.7249 273.441C52.5066 272.558 52.0375 271.688 51.3176 270.83C50.6903 270.082 50.0359 269.514 49.3546 269.125C48.663 268.724 47.9598 268.521 47.2451 268.515C46.5303 268.51 45.8214 268.698 45.1183 269.08L41.9095 265.256Z" fill="#FFCF25"/>
<path d="M32.0415 254.237L34.9991 252.313L39.0904 258.613L39.023 258.686C39.7724 259.84 40.2358 260.979 40.4133 262.105C40.582 263.216 40.4678 264.245 40.0706 265.19C39.6647 266.122 38.9856 266.898 38.0333 267.517C37.0541 268.154 36.0566 268.469 35.0407 268.461C34.0027 268.449 33.0036 268.145 32.0435 267.548C31.0613 266.946 30.1955 266.068 29.4461 264.914L23.4594 255.695L38.5491 245.882L41.2679 250.069L27.2848 259.162L27.9403 256.074L32.0316 262.374C32.476 263.058 32.9923 263.486 33.5803 263.657C34.1462 263.823 34.7243 263.714 35.3144 263.331C35.8912 262.956 36.2252 262.471 36.3166 261.877C36.3858 261.279 36.1982 260.637 35.7537 259.953L32.0415 254.237ZM34.9902 255.869L45.3984 256.429L48.5356 261.26L38.0228 260.539L34.9902 255.869Z" fill="#FFCF25"/>
<path d="M10.6923 227.01L9.71564 224.173L13.151 223.166L10.8397 220.435L13.2428 218.641L15.2677 221.573L17.1651 218.533L19.6106 220.254L17.4457 223.107L20.9077 224.021L20.0406 226.884L16.6663 225.635L16.8761 229.193L13.8792 229.262L14.0105 225.663L10.6923 227.01Z" fill="#FFCF25"/>
<path d="M20.2138 181.991C20.3622 184.113 20.1018 186.008 19.4324 187.675C18.7619 189.326 17.7557 190.647 16.4136 191.64C15.0704 192.616 13.4651 193.169 11.5977 193.3C9.73027 193.431 8.06358 193.107 6.59764 192.327C5.13057 191.532 3.9502 190.363 3.0565 188.822C2.16169 187.265 1.64007 185.425 1.49162 183.302C1.34207 181.163 1.60252 179.268 2.273 177.617C2.94347 175.966 3.94974 174.645 5.2918 173.653C6.63385 172.66 8.2386 172.099 10.106 171.968C11.9734 171.837 13.6407 172.17 15.1078 172.965C16.5748 173.761 17.7552 174.929 18.6489 176.47C19.5426 178.012 20.0642 179.852 20.2138 181.991ZM15.7846 182.301C15.7031 181.136 15.4333 180.144 14.9751 179.326C14.517 178.508 13.9051 177.901 13.1397 177.506C12.3731 177.094 11.4791 176.924 10.4576 176.996C9.4361 177.067 8.57443 177.36 7.8726 177.875C7.16964 178.373 6.64823 179.059 6.30836 179.933C5.9685 180.807 5.8393 181.826 5.92077 182.992C6.00113 184.141 6.2704 185.124 6.72858 185.942C7.18675 186.76 7.79913 187.375 8.5657 187.786C9.33226 188.198 10.2263 188.368 11.2478 188.296C12.2693 188.225 13.131 187.932 13.8328 187.418C14.5346 186.903 15.0555 186.209 15.3954 185.335C15.7352 184.461 15.865 183.45 15.7846 182.301Z" fill="#FFCF25"/>
<path d="M8.7407 167.231L9.15646 159.298C9.23601 157.78 9.53301 156.546 10.0474 155.595C10.5619 154.645 11.2551 153.952 12.127 153.518C12.983 153.082 13.9702 152.893 15.0887 152.952C16.2072 153.011 17.176 153.326 17.9952 153.898C18.7984 154.468 19.4058 155.261 19.8172 156.276C20.2127 157.29 20.374 158.493 20.3011 159.883L19.6882 171.579L10.4378 169.699L1.7129 170.635L2.60093 153.691L6.36376 153.888L5.63775 167.741L3.46012 165.728L10.5894 164.973L18.6022 166.619L16.2262 168.393L16.6482 160.34C16.6859 159.621 16.5319 159.044 16.1861 158.609C15.8412 158.159 15.3492 157.916 14.7101 157.883C14.055 157.848 13.5404 158.038 13.1663 158.451C12.777 158.847 12.5635 159.404 12.5259 160.123L12.144 167.409L8.7407 167.231Z" fill="#FFCF25"/>
<path d="M21.36 149.099L16.3686 144.927L16.3811 144.856L5.43048 135.782L6.36818 130.464L22.2977 143.781L21.36 149.099ZM19.5231 145.557L2.62155 151.712L3.57592 146.299L16.8505 141.503L19.5231 145.557Z" fill="#FFCF25"/>
<path d="M21.1984 125.968C20.4499 128.416 19.242 130.096 17.5745 131.008C15.8965 131.9 13.8488 131.976 11.4316 131.236L6.86484 129.838L8.31734 125.087L12.494 126.365C13.7026 126.735 14.7135 126.685 15.5266 126.215C16.3397 125.744 16.9474 124.851 17.3497 123.535C17.5836 122.77 17.745 121.941 17.834 121.048C17.9077 120.15 17.9049 119.229 17.8256 118.284L21.7193 119.175C21.8976 120.234 21.9431 121.344 21.8557 122.505C21.7684 123.666 21.5493 124.821 21.1984 125.968ZM28.0548 122.094L10.8434 116.824L12.303 112.05L29.5143 117.32L28.0548 122.094Z" fill="#FFCF25"/>
<path d="M28.9442 111.991L25.2836 110.359L30.3304 99.0237L33.991 100.656L28.9442 111.991ZM19.5557 97.3203L39.3243 97.1739L37.1669 102.019L19.8642 101.82L20.4499 100.504L32.1592 113.267L30.0019 118.112L16.8907 103.306L19.5557 97.3203Z" fill="#FFCF25"/>
<path d="M28.1623 84.5877L30.7334 80.3087L44.2852 88.4632L41.7141 92.7421L28.1623 84.5877ZM22.7558 89.3452L32.3973 73.299L36.1811 75.5759L26.5396 91.622L22.7558 89.3452Z" fill="#FFCF25"/>
<path d="M48.4541 82.8721L34.4734 71.5346L37.5998 67.6737L50.2757 77.9531L47.1374 78.2818L51.5477 72.8356C52.0612 72.2015 52.2974 71.5793 52.2562 70.9691C52.2251 70.3465 51.9362 69.8135 51.3894 69.37C50.8301 68.9165 50.2492 68.7441 49.6465 68.8528C49.0539 68.949 48.5008 69.3142 47.9873 69.9483L43.3051 75.7303L40.248 73.2511L45.1265 67.2267C46.0831 66.0454 47.1088 65.1983 48.2036 64.6854C49.296 64.1499 50.3839 63.9506 51.4671 64.0875C52.5605 64.2119 53.5918 64.6672 54.5611 65.4532C55.5305 66.2393 56.1955 67.1597 56.5561 68.2143C56.9144 69.2465 56.945 70.3528 56.6479 71.5332C56.3609 72.7013 55.7391 73.8759 54.7825 75.0572L48.4541 82.8721Z" fill="#FFCF25"/>
<path d="M69.2191 49.3107C70.192 50.5732 70.7669 51.9531 70.9439 53.4504C71.1097 54.9362 70.8851 56.432 70.2701 57.9379C69.6666 59.4327 68.6742 60.8469 67.2931 62.1807C65.7854 63.6367 64.1954 64.6271 62.5233 65.152C60.8512 65.6768 59.2099 65.7382 57.5995 65.3359C56.0007 64.9226 54.5515 64.0421 53.2521 62.6946C51.9527 61.3471 51.125 59.8665 50.7692 58.2527C50.4248 56.6279 50.5445 54.9887 51.1282 53.3351C51.712 51.6816 52.7577 50.1268 54.2654 48.6708C55.6466 47.337 57.0942 46.395 58.6085 45.8447C60.1342 45.2832 61.6416 45.1176 63.1306 45.3479C64.6085 45.5667 65.9605 46.185 67.1866 47.203L63.5957 50.6707C62.9475 50.229 62.2732 49.9793 61.573 49.9216C60.8616 49.8523 60.1355 49.9752 59.3946 50.2903C58.6653 50.5942 57.9495 51.0852 57.2475 51.7632C56.4418 52.5412 55.8899 53.3633 55.5916 54.2296C55.2823 55.0844 55.2388 55.9383 55.4612 56.7912C55.6724 57.6326 56.1446 58.4334 56.8776 59.1935C57.6106 59.9537 58.399 60.4601 59.2429 60.7129C60.0756 60.9541 60.9299 60.941 61.8056 60.6736C62.6703 60.3947 63.5054 59.8663 64.3111 59.0882C65.0131 58.4103 65.5345 57.7177 65.8751 57.0107C66.2273 56.2925 66.3814 55.5764 66.3376 54.8625C66.2937 54.1486 66.0573 53.4539 65.6281 52.7784L69.2191 49.3107Z" fill="#FFCF25"/>
<path d="M79.543 38.8505L81.6642 41.6696L75.6649 46.1904L75.588 46.1281C74.4891 46.9562 73.3848 47.4978 72.2753 47.753C71.1785 47.9985 70.1451 47.9557 69.1753 47.6248C68.2181 47.2842 67.3981 46.6601 66.715 45.7523C66.0128 44.819 65.6303 43.8451 65.5677 42.8305C65.5082 41.7935 65.7431 40.775 66.2722 39.7752C66.8046 38.753 67.6202 37.8279 68.7192 36.9998L77.4978 30.3846L88.3205 44.7675L84.3337 47.7718L74.3046 34.4436L77.4292 34.8839L71.4299 39.4047C70.7782 39.8958 70.3873 40.4407 70.2572 41.0396C70.1303 41.6161 70.2785 42.1855 70.7018 42.7481C71.1155 43.2978 71.6215 43.5977 72.2198 43.6477C72.8212 43.6753 73.4478 43.4436 74.0995 42.9525L79.543 38.8505ZM78.1186 41.9072L78.2769 52.3359L73.6767 55.8024L73.6718 45.2581L78.1186 41.9072Z" fill="#FFCF25"/>
<path d="M105.806 15.3746L108.567 14.2024L109.808 17.5605L112.373 15.0638L114.328 17.337L111.543 19.5619L114.706 21.2436L113.159 23.8038L110.164 21.8422L109.491 25.3605L106.576 24.6946L107.589 21.2405L104.055 21.6976L103.78 18.7117L107.378 18.5921L105.806 15.3746Z" fill="#FFCF25"/>
<path d="M151.548 21.0103C149.447 21.3432 147.536 21.2489 145.818 20.7273C144.115 20.2032 142.711 19.3159 141.606 18.0654C140.517 16.8123 139.826 15.2613 139.534 13.4123C139.241 11.5632 139.42 9.87455 140.069 8.34617C140.734 6.8153 141.795 5.53753 143.253 4.51286C144.727 3.48569 146.515 2.80565 148.616 2.47276C150.734 2.13736 152.644 2.23171 154.347 2.75579C156.05 3.27986 157.454 4.16718 158.559 5.41772C159.664 6.66827 160.362 8.21805 160.655 10.0671C160.947 11.9161 160.761 13.606 160.096 15.1369C159.431 16.6678 158.369 17.9456 156.912 18.9702C155.454 19.9949 153.666 20.6749 151.548 21.0103ZM150.855 16.6248C152.008 16.4421 152.973 16.0869 153.748 15.5591C154.523 15.0314 155.074 14.369 155.402 13.572C155.745 12.7724 155.837 11.8669 155.677 10.8555C155.517 9.84407 155.15 9.01116 154.577 8.35679C154.019 7.69991 153.291 7.24025 152.391 6.97782C151.491 6.71539 150.464 6.67553 149.31 6.85824C148.172 7.03846 147.216 7.39243 146.441 7.92018C145.666 8.44792 145.106 9.11157 144.763 9.91112C144.42 10.7107 144.328 11.6162 144.488 12.6276C144.648 13.639 145.015 14.4719 145.588 15.1263C146.161 15.7807 146.898 16.2391 147.798 16.5015C148.698 16.7639 149.717 16.805 150.855 16.6248Z" fill="#FFCF25"/>
<path d="M164.184 8.38517L172.127 8.24653C173.647 8.22 174.899 8.43019 175.883 8.87708C176.867 9.32398 177.606 9.96718 178.101 10.8067C178.595 11.6302 178.852 12.6018 178.871 13.7217C178.891 14.8415 178.644 15.8299 178.131 16.687C177.618 17.5281 176.869 18.1893 175.885 18.6705C174.901 19.1358 173.713 19.3805 172.321 19.4048L160.611 19.6092L161.84 10.2504L160.298 1.61197L177.263 1.31584L177.329 5.08327L163.459 5.32537L165.315 3.01262L166.566 10.0719L165.483 18.18L163.548 15.9334L171.61 15.7927C172.33 15.7801 172.895 15.5862 173.305 15.211C173.73 14.8356 173.937 14.3279 173.926 13.688C173.915 13.0321 173.69 12.5319 173.252 12.1875C172.83 11.8268 172.258 11.6528 171.539 11.6653L164.244 11.7927L164.184 8.38517Z" fill="#FFCF25"/>
<path d="M184.174 20.1211L187.985 14.8506L188.057 14.8581L196.341 3.30067L201.711 3.86513L189.545 20.6855L184.174 20.1211ZM187.578 18.0415L180.253 1.60982L185.719 2.18431L191.435 15.0925L187.578 18.0415Z" fill="#FFCF25"/>
<path d="M207.006 17.8053C204.511 17.2295 202.751 16.1415 201.724 14.5415C200.716 12.9296 200.496 10.8919 201.064 8.42849L202.137 3.77456L206.978 4.89212L205.997 9.14847C205.713 10.3802 205.834 11.3852 206.361 12.1636C206.887 12.942 207.821 13.486 209.162 13.7955C209.941 13.9755 210.779 14.0787 211.676 14.1052C212.577 14.116 213.495 14.0489 214.432 13.9039L213.818 17.8508C212.774 18.1026 211.671 18.2255 210.506 18.2194C209.342 18.2133 208.175 18.0753 207.006 17.8053ZM211.353 24.3756L215.396 6.83569L220.26 7.95865L216.217 25.4986L211.353 24.3756Z" fill="#FFCF25"/>
<path d="M221.04 23.9534L222.409 20.1865L234.069 24.4302L232.7 28.1972L221.04 23.9534ZM235.007 13.5594L236.549 33.2758L231.565 31.4617L230.542 14.1817L231.895 14.6743L219.995 27.2508L215.011 25.4367L228.85 11.3185L235.007 13.5594Z" fill="#FFCF25"/>
<path d="M247.716 21.7631L252.164 24.0294L244.992 38.1258L240.544 35.8595L247.716 21.7631ZM242.591 16.7004L259.27 25.1991L257.268 29.1349L240.588 20.6362L242.591 16.7004Z" fill="#FFCF25"/>
<path d="M252.54 42.3331L262.596 27.4037L266.714 30.1818L257.597 43.7177L256.994 40.6184L262.804 44.5372C263.48 44.9935 264.12 45.1744 264.724 45.0799C265.341 44.9943 265.846 44.6596 266.24 44.0757C266.642 43.4785 266.762 42.8843 266.601 42.2931C266.453 41.7108 266.041 41.1915 265.364 40.7352L259.196 36.5748L261.395 33.3102L267.822 37.6451C269.082 38.4951 270.016 39.4432 270.623 40.4896C271.252 41.5316 271.546 42.5985 271.505 43.6902C271.478 44.791 271.115 45.8589 270.418 46.894C269.721 47.9291 268.863 48.6726 267.845 49.1245C266.849 49.5721 265.75 49.6996 264.549 49.5069C263.361 49.3232 262.137 48.8063 260.877 47.9563L252.54 42.3331Z" fill="#FFCF25"/>
<path d="M286.665 60.5495C285.494 61.6302 284.171 62.3246 282.696 62.6324C281.232 62.9282 279.723 62.8357 278.17 62.3549C276.629 61.8846 275.134 61.0196 273.685 59.76C272.103 58.3849 270.977 56.8869 270.308 55.2662C269.638 53.6454 269.433 52.0147 269.692 50.3741C269.963 48.744 270.712 47.2221 271.939 45.8084C273.166 44.3947 274.567 43.4396 276.142 42.9432C277.729 42.4572 279.372 42.4326 281.069 42.8692C282.766 43.3059 284.406 44.2117 285.988 45.5868C287.437 46.8465 288.502 48.2068 289.183 49.668C289.876 51.1396 290.173 52.6276 290.075 54.1322C289.987 55.6246 289.49 57.0267 288.584 58.3384L284.817 55.0633C285.2 54.3784 285.389 53.6843 285.385 52.9812C285.391 52.266 285.205 51.5529 284.826 50.8421C284.46 50.1417 283.908 49.4714 283.171 48.8311C282.326 48.0963 281.459 47.6183 280.571 47.3971C279.693 47.1638 278.839 47.1955 278.009 47.492C277.19 47.7765 276.435 48.3175 275.743 49.1149C275.05 49.9124 274.616 50.7428 274.438 51.6062C274.271 52.4575 274.359 53.3079 274.703 54.1574C275.056 54.9949 275.656 55.781 276.501 56.5157C277.237 57.1561 277.973 57.6149 278.706 57.8924C279.452 58.1803 280.179 58.2711 280.885 58.1647C281.592 58.0583 282.263 57.7616 282.898 57.2745L286.665 60.5495Z" fill="#FFCF25"/>
<path d="M298.302 70.2992L295.641 72.6157L290.712 66.9463L290.769 66.8652C289.866 65.8267 289.249 64.7627 288.917 63.6731C288.595 62.5956 288.565 61.5611 288.826 60.5696C289.099 59.5902 289.663 58.7275 290.52 57.9816C291.401 57.2147 292.345 56.7642 293.352 56.6301C294.381 56.4975 295.413 56.66 296.447 57.1177C297.503 57.5769 298.483 58.3257 299.386 59.3642L306.597 67.66L293.021 79.4787L289.746 75.7112L302.326 64.7592L302.107 67.9092L297.179 62.2398C296.644 61.624 296.073 61.2723 295.467 61.1848C294.883 61.0988 294.326 61.2869 293.795 61.7492C293.276 62.2009 293.013 62.7271 293.005 63.3279C293.02 63.9302 293.295 64.5393 293.83 65.1551L298.302 70.2992ZM295.155 69.0933L284.77 69.9875L280.991 65.6404L291.502 64.891L295.155 69.0933Z" fill="#FFCF25"/>
<path d="M323.891 93.5784L325.253 96.2514L321.992 97.7271L324.661 100.11L322.531 102.221L320.118 99.5995L318.662 102.875L316.001 101.511L317.747 98.384L314.192 97.9617L314.652 95.0056L318.167 95.7717L317.464 92.2775L320.422 91.792L320.793 95.3748L323.891 93.5784Z" fill="#FFCF25"/>
<path d="M319.931 139.604C319.452 137.53 319.413 135.618 319.813 133.867C320.217 132.131 321.004 130.668 322.175 129.478C323.348 128.303 324.847 127.505 326.671 127.084C328.495 126.662 330.192 126.721 331.762 127.262C333.335 127.817 334.684 128.787 335.807 130.169C336.935 131.567 337.738 133.303 338.217 135.376C338.699 137.465 338.738 139.378 338.334 141.113C337.93 142.849 337.143 144.312 335.973 145.502C334.803 146.692 333.305 147.498 331.482 147.92C329.658 148.341 327.959 148.274 326.386 147.718C324.812 147.162 323.464 146.193 322.34 144.811C321.216 143.428 320.413 141.693 319.931 139.604ZM324.257 138.604C324.519 139.742 324.941 140.679 325.522 141.415C326.102 142.151 326.801 142.655 327.619 142.925C328.441 143.212 329.35 143.239 330.348 143.009C331.345 142.778 332.151 142.354 332.763 141.736C333.38 141.134 333.787 140.374 333.986 139.458C334.185 138.542 334.153 137.514 333.891 136.376C333.631 135.254 333.212 134.324 332.631 133.588C332.051 132.852 331.35 132.341 330.528 132.055C329.707 131.768 328.797 131.74 327.8 131.971C326.802 132.202 325.997 132.626 325.384 133.244C324.771 133.862 324.365 134.629 324.166 135.545C323.967 136.462 323.998 137.481 324.257 138.604Z" fill="#FFCF25"/>
<path d="M333.999 151.805L334.83 159.706C334.988 161.218 334.888 162.483 334.529 163.502C334.169 164.521 333.593 165.314 332.8 165.88C332.023 166.445 331.077 166.786 329.963 166.903C328.849 167.02 327.843 166.86 326.945 166.424C326.062 165.986 325.338 165.298 324.773 164.36C324.224 163.42 323.876 162.258 323.731 160.874L322.507 149.226L331.937 149.633L340.408 147.342L342.181 164.217L338.434 164.612L336.984 150.816L339.45 152.463L332.526 154.325L324.355 153.955L326.424 151.83L327.267 159.85C327.342 160.566 327.585 161.112 327.994 161.487C328.405 161.878 328.929 162.04 329.566 161.973C330.218 161.905 330.697 161.637 331.002 161.171C331.324 160.718 331.448 160.134 331.372 159.418L330.61 152.162L333.999 151.805Z" fill="#FFCF25"/>
<path d="M324.225 172.818L329.808 176.156L329.807 176.228L342.042 183.475L341.948 188.874L324.131 178.217L324.225 172.818ZM326.594 176.028L342.324 167.302L342.229 172.797L329.868 179.614L326.594 176.028Z" fill="#FFCF25"/>
<path d="M327.551 194.913C327.952 192.385 328.914 190.553 330.439 189.418C331.976 188.301 333.994 187.94 336.49 188.336L341.207 189.085L340.43 193.991L336.116 193.307C334.868 193.109 333.874 193.3 333.134 193.879C332.394 194.458 331.917 195.428 331.701 196.787C331.576 197.577 331.532 198.42 331.568 199.317C331.62 200.216 331.751 201.128 331.961 202.052L327.981 201.713C327.657 200.689 327.458 199.597 327.383 198.434C327.307 197.272 327.364 196.099 327.551 194.913ZM321.301 199.705L339.079 202.525L338.298 207.456L320.52 204.636L321.301 199.705Z" fill="#FFCF25"/>
<path d="M323.014 210.06L326.866 211.166L323.446 223.094L319.593 221.988L323.014 210.06ZM334.353 223.279L314.796 226.178L316.258 221.08L333.421 218.867L333.024 220.251L319.652 209.245L321.114 204.146L336.159 216.981L334.353 223.279Z" fill="#FFCF25"/>
<path d="M327.591 236.002L325.641 240.597L311.085 234.41L313.036 229.815L327.591 236.002ZM332.283 230.538L324.969 247.77L320.905 246.042L328.219 228.81L332.283 230.538Z" fill="#FFCF25"/>
<path d="M307.059 242.591L322.641 251.601L320.157 255.904L306.029 247.735L309.077 246.919L305.573 252.988C305.165 253.695 305.029 254.346 305.166 254.942C305.294 255.552 305.662 256.034 306.272 256.386C306.895 256.746 307.496 256.826 308.074 256.624C308.645 256.436 309.134 255.989 309.542 255.283L313.262 248.839L316.669 250.809L312.793 257.523C312.033 258.839 311.153 259.836 310.152 260.514C309.156 261.214 308.113 261.581 307.022 261.616C305.922 261.664 304.832 261.376 303.752 260.751C302.671 260.126 301.871 259.321 301.349 258.336C300.834 257.373 300.631 256.285 300.739 255.073C300.84 253.874 301.271 252.617 302.031 251.3L307.059 242.591Z" fill="#FFCF25"/>
<path d="M292.149 278.122C290.99 277.027 290.206 275.754 289.797 274.303C289.401 272.861 289.389 271.349 289.761 269.765C290.123 268.194 290.882 266.642 292.037 265.109C293.299 263.435 294.714 262.208 296.284 261.428C297.853 260.648 299.465 260.331 301.118 260.476C302.762 260.634 304.331 261.277 305.825 262.405C307.32 263.532 308.369 264.865 308.973 266.403C309.567 267.954 309.705 269.592 309.387 271.317C309.069 273.041 308.28 274.74 307.018 276.414C305.863 277.948 304.58 279.104 303.171 279.885C301.752 280.678 300.289 281.078 298.782 281.083C297.288 281.098 295.856 280.699 294.486 279.885L297.49 275.899C298.199 276.233 298.904 276.375 299.605 276.322C300.319 276.279 301.016 276.044 301.699 275.617C302.372 275.203 303.002 274.606 303.589 273.826C304.263 272.932 304.68 272.034 304.839 271.131C305.011 270.239 304.92 269.389 304.567 268.581C304.227 267.783 303.635 267.066 302.792 266.43C301.949 265.794 301.091 265.417 300.218 265.299C299.358 265.191 298.516 265.338 297.693 265.739C296.883 266.15 296.141 266.802 295.467 267.697C294.879 268.476 294.473 269.242 294.247 269.993C294.011 270.758 293.971 271.489 294.126 272.187C294.281 272.886 294.623 273.535 295.153 274.135L292.149 278.122Z" fill="#FFCF25"/>
<path d="M283.026 290.772L280.49 288.32L285.709 282.916L285.794 282.965C286.75 281.976 287.756 281.268 288.812 280.842C289.857 280.428 290.884 280.309 291.894 280.484C292.893 280.671 293.8 281.159 294.617 281.949C295.456 282.761 295.986 283.663 296.207 284.655C296.428 285.67 296.355 286.713 295.989 287.783C295.623 288.876 294.962 289.917 294.006 290.907L286.371 298.814L273.432 286.301L276.899 282.71L288.89 294.306L285.735 294.359L290.953 288.956C291.52 288.369 291.821 287.769 291.855 287.158C291.891 286.568 291.655 286.029 291.149 285.54C290.654 285.061 290.108 284.844 289.509 284.888C288.911 284.955 288.328 285.282 287.761 285.869L283.026 290.772ZM283.955 287.53L282.168 277.255L286.169 273.111L287.823 283.525L283.955 287.53Z" fill="#FFCF25"/>
<path d="M261.589 317.11L259.017 318.655L257.322 315.502L255.129 318.332L252.878 316.353L255.326 313.762L251.959 312.536L253.136 309.786L256.374 311.312L256.551 307.734L259.53 307.988L259.008 311.549L262.444 310.605L263.131 313.523L259.584 314.143L261.589 317.11Z" fill="#FFCF25"/>
</svg>
