<svg width="20" height="17" viewBox="0 0 20 17" fill="none" xmlns="http://www.w3.org/2000/svg">
<path d="M8.33333 0.666641V2.54997L10 3.65831V2.33331H18.3333V14.8333H14.1667V16.5H20V0.666641H8.33333ZM6.25 3.16664L0 7.33331V16.5H12.5V7.33331L6.25 3.16664ZM11.6667 3.99997V4.77497L13.0083 5.66664H13.3333V3.99997H11.6667ZM15 3.99997V5.66664H16.6667V3.99997H15ZM6.25 5.24997L10.8333 8.16664V14.8333H8.33333V9.83331H4.16667V14.8333H1.66667V8.16664L6.25 5.24997ZM15 7.33331V8.99997H16.6667V7.33331H15ZM15 10.6666V12.3333H16.6667V10.6666H15Z" fill="black"/>
</svg>
